<?xml version="1.0" standalone="no"?>
<!DOCTYPE svg PUBLIC "-//W3C//DTD SVG 20010904//EN"
 "http://www.w3.org/TR/2001/REC-SVG-20010904/DTD/svg10.dtd">
<svg version="1.0" xmlns="http://www.w3.org/2000/svg"
 width="845.000000pt" height="822.000000pt" viewBox="0 0 845.000000 822.000000"
 preserveAspectRatio="xMidYMid meet">

<g transform="translate(0.000000,822.000000) scale(0.100000,-0.100000)"
fill="#000000" stroke="none">
<path d="M2 6263 c1 -1077 3 -1938 5 -1913 62 862 358 1622 891 2292 58 73
194 221 301 329 272 271 498 449 808 635 578 347 1228 552 1913 603 58 5 -801
9 -1907 10 l-2013 1 2 -1957z"/>
<path d="M4530 8209 c890 -66 1700 -384 2400 -943 165 -131 489 -457 624 -626
529 -663 836 -1455 889 -2295 2 -27 4 833 5 1913 l2 1962 -2012 -1 c-1107 -1
-1966 -5 -1908 -10z"/>
<path d="M3895 7738 c-60 -5 -139 -13 -175 -18 l-65 -9 80 5 c182 10 242 14
273 20 22 3 32 1 32 -8 0 -9 3 -10 8 -2 5 7 62 11 170 12 90 0 166 3 169 6 9
9 -366 5 -492 -6z"/>
<path d="M4408 7743 c7 -3 16 -2 19 1 4 3 -2 6 -13 5 -11 0 -14 -3 -6 -6z"/>
<path d="M4445 7740 c3 -4 53 -10 112 -14 203 -14 546 -72 716 -121 42 -12 77
-19 77 -15 0 16 -258 74 -480 109 -210 32 -433 54 -425 41z"/>
<path d="M3483 7687 c-57 -11 -103 -23 -103 -27 0 -4 30 -1 67 6 37 8 73 12
81 9 7 -2 10 0 7 5 -4 6 8 11 27 11 18 1 47 5 63 9 l30 8 -35 0 c-19 0 -81 -9
-137 -21z"/>
<path d="M3620 7684 c0 -1 8 -8 17 -15 9 -8 14 -9 10 -2 -4 7 0 13 10 16 10 3
6 4 -9 4 -16 -1 -28 -2 -28 -3z"/>
<path d="M4883 7655 c0 -8 4 -15 9 -15 4 0 8 4 8 9 0 6 -4 12 -8 15 -5 3 -9
-1 -9 -9z"/>
<path d="M3303 7648 c-43 -9 -53 -21 -30 -34 7 -4 9 -3 4 2 -5 5 14 16 45 26
58 18 48 21 -19 6z"/>
<path d="M4855 7640 c-3 -5 -1 -10 4 -10 6 0 11 5 11 10 0 6 -2 10 -4 10 -3 0
-8 -4 -11 -10z"/>
<path d="M5051 7626 c-8 -10 -9 -16 -1 -21 5 -3 10 0 10 9 0 8 6 17 13 19 7 4
8 6 1 6 -6 1 -17 -5 -23 -13z"/>
<path d="M3160 7608 c-36 -11 -75 -22 -87 -25 -13 -3 -23 -9 -23 -13 0 -7 139
31 185 50 38 16 -9 9 -75 -12z"/>
<path d="M3580 7610 c0 -5 5 -10 11 -10 5 0 7 5 4 10 -3 6 -8 10 -11 10 -2 0
-4 -4 -4 -10z"/>
<path d="M3885 7600 c-38 -7 -38 -7 18 -9 32 0 57 3 57 9 0 11 -14 11 -75 0z"/>
<path d="M4088 7603 c68 -2 176 -2 240 0 64 1 9 3 -123 3 -132 0 -185 -2 -117
-3z"/>
<path d="M5076 7593 c-6 -14 -5 -15 5 -6 7 7 10 15 7 18 -3 3 -9 -2 -12 -12z"/>
<path d="M3760 7590 c-129 -17 -155 -21 -160 -27 -3 -3 18 -3 45 1 28 4 77 9
110 13 33 3 67 9 75 14 18 10 13 10 -70 -1z"/>
<path d="M4595 7585 c83 -7 173 -15 200 -18 l50 -6 -47 11 c-27 5 -48 13 -48
17 0 3 -69 7 -153 8 l-152 1 150 -13z"/>
<path d="M4817 7589 c7 -7 15 -10 18 -7 3 3 -2 9 -12 12 -14 6 -15 5 -6 -5z"/>
<path d="M5155 7590 c-3 -5 -1 -10 4 -10 6 0 11 5 11 10 0 6 -2 10 -4 10 -3 0
-8 -4 -11 -10z"/>
<path d="M5385 7576 c17 -8 24 -15 16 -16 -8 0 -12 -2 -9 -5 3 -3 16 -2 28 3
l24 9 -26 6 c-14 4 -34 9 -45 12 -10 3 -4 -1 12 -9z"/>
<path d="M2942 7538 c-46 -16 -81 -32 -79 -35 3 -2 34 7 71 21 36 14 70 26 74
27 4 0 14 5 22 10 29 16 -5 8 -88 -23z"/>
<path d="M3560 7560 c-14 -4 -39 -6 -57 -6 -17 1 -29 -2 -26 -6 2 -5 -3 -8
-12 -8 -23 0 -157 -31 -153 -36 4 -3 269 47 277 53 11 8 -6 9 -29 3z"/>
<path d="M4944 7562 c5 -8 -9 -10 -46 -7 l-53 5 65 -15 c36 -8 72 -13 80 -11
8 2 2 4 -13 5 -16 0 -26 5 -22 10 3 5 0 13 -6 17 -8 4 -9 3 -5 -4z"/>
<path d="M3123 7545 c0 -8 4 -12 9 -9 4 3 8 9 8 15 0 5 -4 9 -8 9 -5 0 -9 -7
-9 -15z"/>
<path d="M3165 7550 c-3 -6 2 -13 12 -17 10 -3 22 -8 27 -11 5 -3 6 0 2 6 -4
7 -14 12 -22 12 -8 0 -12 5 -9 10 3 6 4 10 1 10 -3 0 -8 -5 -11 -10z"/>
<path d="M5163 7545 c0 -8 4 -12 9 -9 5 3 6 10 3 15 -9 13 -12 11 -12 -6z"/>
<path d="M5460 7552 c8 -5 26 -13 40 -16 17 -5 20 -4 10 2 -8 5 -26 13 -40 16
-17 5 -20 4 -10 -2z"/>
<path d="M5100 7504 c101 -25 117 -27 108 -18 -7 6 -177 45 -192 43 -6 -1 32
-12 84 -25z"/>
<path d="M5308 7523 c7 -3 16 -2 19 1 4 3 -2 6 -13 5 -11 0 -14 -3 -6 -6z"/>
<path d="M5538 7523 c6 -2 9 -10 6 -15 -4 -7 -2 -8 4 -4 12 7 156 -46 241 -89
29 -14 55 -24 57 -22 9 8 -293 139 -315 136 -3 0 0 -3 7 -6z"/>
<path d="M2996 7495 c4 -8 8 -15 10 -15 2 0 4 7 4 15 0 8 -4 15 -10 15 -5 0
-7 -7 -4 -15z"/>
<path d="M5460 7499 c0 -5 5 -7 10 -4 6 3 10 8 10 11 0 2 -4 4 -10 4 -5 0 -10
-5 -10 -11z"/>
<path d="M2722 7450 c-132 -57 -283 -132 -278 -138 2 -2 23 6 45 18 23 11 47
18 53 14 6 -4 8 -3 5 3 -7 11 3 17 158 84 87 38 113 45 124 36 12 -10 13 -9 7
2 -5 8 -3 17 5 22 34 21 -15 5 -119 -41z"/>
<path d="M2948 7493 c7 -3 16 -2 19 1 4 3 -2 6 -13 5 -11 0 -14 -3 -6 -6z"/>
<path d="M3278 7493 c7 -3 16 -2 19 1 4 3 -2 6 -13 5 -11 0 -14 -3 -6 -6z"/>
<path d="M5225 7489 c-4 -6 -5 -11 -4 -13 2 -1 69 -24 149 -50 80 -26 152 -50
160 -52 11 -4 10 -2 -1 5 -20 13 -160 63 -242 86 -31 9 -55 21 -52 26 4 5 4 9
1 9 -3 0 -8 -5 -11 -11z"/>
<path d="M3215 7483 c-11 -3 -52 -16 -92 -29 -39 -13 -79 -21 -89 -17 -11 4
-15 3 -11 -4 5 -7 -12 -18 -44 -28 -27 -9 -49 -19 -47 -21 2 -2 62 16 134 39
71 24 145 48 164 54 35 11 23 15 -15 6z"/>
<path d="M5595 7430 c-10 -11 -16 -22 -14 -24 2 -2 12 7 22 20 22 29 17 32 -8
4z"/>
<path d="M2760 7406 c0 -8 4 -17 9 -20 5 -4 7 3 4 14 -6 23 -13 26 -13 6z"/>
<path d="M5860 7385 c0 -6 76 -45 87 -45 10 0 -45 34 -69 43 -10 3 -18 4 -18
2z"/>
<path d="M2817 7345 c-100 -40 -101 -40 -91 -22 4 6 3 8 -1 4 -5 -4 -10 -14
-11 -22 -2 -11 9 -10 49 7 29 11 75 30 102 40 28 11 52 22 54 24 11 10 -21 1
-102 -31z"/>
<path d="M2750 7366 c0 -2 7 -9 15 -16 13 -11 14 -10 9 4 -5 14 -24 23 -24 12z"/>
<path d="M5551 7366 c2 -2 52 -24 110 -49 215 -92 431 -210 621 -338 31 -22
61 -39 65 -39 4 0 -19 18 -52 40 -33 22 -59 45 -57 51 1 6 -2 8 -7 5 -13 -8
-162 89 -153 99 4 5 2 5 -5 1 -6 -3 -47 13 -90 36 -178 97 -466 227 -432 194z"/>
<path d="M5796 7332 c-2 -4 -1 -14 4 -22 7 -11 9 -9 7 8 -1 24 -3 26 -11 14z"/>
<path d="M5825 7330 c-3 -6 1 -7 9 -4 18 7 21 14 7 14 -6 0 -13 -4 -16 -10z"/>
<path d="M5960 7335 c0 -2 32 -21 70 -40 39 -19 70 -33 70 -30 0 2 -31 21 -70
40 -38 19 -70 33 -70 30z"/>
<path d="M2580 7310 c-13 -8 -12 -10 3 -10 9 0 17 5 17 10 0 12 -1 12 -20 0z"/>
<path d="M2410 7300 c-9 -6 -10 -10 -3 -10 6 0 15 5 18 10 8 12 4 12 -15 0z"/>
<path d="M2294 7237 c-97 -58 -214 -135 -214 -142 0 -5 15 4 125 76 39 26 96
61 128 79 49 27 66 40 54 40 -2 0 -43 -24 -93 -53z"/>
<path d="M2642 7269 c-24 -10 -49 -16 -55 -12 -5 3 -7 2 -4 -4 3 -5 -21 -23
-54 -39 -33 -15 -63 -32 -65 -36 -4 -6 223 98 235 109 11 9 -18 0 -57 -18z"/>
<path d="M6110 7256 c0 -3 9 -10 20 -16 11 -6 20 -8 20 -6 0 3 -9 10 -20 16
-11 6 -20 8 -20 6z"/>
<path d="M6160 7221 c0 -6 4 -11 10 -11 21 0 120 -71 114 -82 -4 -7 -3 -8 4
-4 6 4 21 2 32 -4 18 -10 19 -14 8 -28 -11 -15 -11 -15 3 -5 13 11 26 5 77
-31 34 -24 59 -46 57 -50 -3 -3 -2 -4 1 -1 7 4 60 -30 79 -50 6 -6 34 -31 63
-54 28 -24 49 -48 45 -53 -4 -7 -1 -8 6 -4 15 10 53 -23 44 -37 -3 -5 -1 -7 4
-4 13 8 36 -17 26 -27 -4 -4 -1 -5 7 -1 25 9 325 -307 313 -329 -3 -6 -3 -8 2
-4 9 8 25 -9 92 -95 25 -32 41 -62 37 -69 -4 -6 -3 -8 3 -5 5 3 31 -23 57 -58
48 -66 76 -92 35 -32 -260 372 -599 708 -954 943 -132 88 -165 107 -165 95z"/>
<path d="M2340 7160 c0 -6 7 -10 15 -10 8 0 15 2 15 4 0 2 -7 6 -15 10 -8 3
-15 1 -15 -4z"/>
<path d="M2389 7137 c-85 -51 -104 -65 -267 -180 -84 -59 -168 -122 -187 -138
-19 -17 -39 -28 -45 -24 -6 4 -9 2 -8 -3 2 -5 -40 -47 -92 -94 -52 -47 -110
-102 -129 -121 -19 -20 -39 -33 -45 -30 -6 3 -8 2 -3 -2 4 -5 -1 -18 -10 -29
-10 -12 25 20 77 70 167 159 339 294 582 457 85 56 163 107 173 114 11 6 17
12 14 12 -3 1 -30 -14 -60 -32z"/>
<path d="M6110 7140 c-8 -5 -10 -10 -5 -10 6 0 17 5 25 10 8 5 11 10 5 10 -5
0 -17 -5 -25 -10z"/>
<path d="M1957 7010 c-261 -199 -477 -406 -621 -595 -32 -41 -33 -44 -7 -17
17 17 36 32 41 32 6 0 9 4 6 9 -8 12 83 113 95 105 5 -3 6 1 3 9 -10 27 393
396 417 381 7 -4 9 -3 5 4 -8 13 33 44 47 35 6 -3 7 -2 4 4 -3 5 16 27 43 47
43 33 57 47 48 46 -2 0 -38 -27 -81 -60z"/>
<path d="M2065 7030 c3 -5 8 -10 11 -10 2 0 4 5 4 10 0 6 -5 10 -11 10 -5 0
-7 -4 -4 -10z"/>
<path d="M6380 7010 c0 -5 5 -10 11 -10 5 0 7 5 4 10 -3 6 -8 10 -11 10 -2 0
-4 -4 -4 -10z"/>
<path d="M6390 6903 c348 -282 586 -532 782 -823 39 -58 76 -109 81 -115 16
-16 -33 64 -81 132 -24 35 -41 67 -37 73 4 6 2 9 -3 8 -13 -4 -122 132 -122
151 0 8 -3 11 -6 8 -10 -10 -45 34 -37 46 3 5 1 7 -4 4 -14 -9 -47 29 -38 43
3 6 2 9 -3 8 -5 -2 -63 51 -128 117 -144 146 -371 343 -424 369 -8 4 1 -5 20
-21z"/>
<path d="M1920 6870 c0 -5 5 -10 11 -10 5 0 7 5 4 10 -3 6 -8 10 -11 10 -2 0
-4 -4 -4 -10z"/>
<path d="M1590 6629 c0 -5 5 -7 10 -4 6 3 10 8 10 11 0 2 -4 4 -10 4 -5 0 -10
-5 -10 -11z"/>
<path d="M5480 6613 c0 -4 45 -8 100 -9 55 0 100 3 100 7 0 3 -45 7 -100 8
-55 1 -100 -2 -100 -6z"/>
<path d="M5295 6594 l-60 -13 60 6 c33 3 87 9 120 13 l60 7 -60 0 c-33 1 -87
-5 -120 -13z"/>
<path d="M5718 6603 c17 -2 47 -2 65 0 17 2 3 4 -33 4 -36 0 -50 -2 -32 -4z"/>
<path d="M5833 6593 c9 -2 25 -2 35 0 9 3 1 5 -18 5 -19 0 -27 -2 -17 -5z"/>
<path d="M5891 6586 c2 -2 21 -7 41 -10 75 -12 251 -91 326 -146 26 -20 30
-26 19 -39 -11 -14 -10 -14 5 -3 15 12 23 9 63 -23 25 -21 45 -40 45 -43 0 -3
-8 -15 -17 -26 -18 -21 -18 -21 4 -2 22 18 22 18 56 -15 47 -47 119 -160 113
-176 -3 -8 -2 -12 3 -9 5 3 14 -8 20 -26 6 -17 14 -29 17 -26 8 9 -53 124 -96
182 -48 65 -153 164 -231 217 -102 69 -287 149 -346 149 -14 0 -24 -2 -22 -4z"/>
<path d="M5126 6554 c-43 -14 -76 -27 -74 -29 5 -5 88 17 143 38 63 24 18 18
-69 -9z"/>
<path d="M2370 6543 c-153 -14 -378 -66 -458 -106 -61 -30 -82 -70 -82 -156 0
-83 7 -76 13 13 2 38 10 71 16 76 7 4 12 10 12 14 -3 20 3 25 47 44 70 30 208
69 315 88 120 22 479 25 624 5 57 -7 101 -16 99 -20 -2 -3 17 -6 42 -7 54 -1
172 -23 172 -33 0 -3 21 -7 48 -7 41 -1 34 2 -48 22 -182 45 -424 74 -615 72
-82 -1 -166 -3 -185 -5z"/>
<path d="M5540 6529 c0 -5 5 -7 10 -4 6 3 10 8 10 11 0 2 -4 4 -10 4 -5 0 -10
-5 -10 -11z"/>
<path d="M5567 6521 c-3 -13 -1 -18 9 -14 7 2 10 11 7 19 -7 19 -10 18 -16 -5z"/>
<path d="M4903 6466 c-108 -53 -220 -121 -328 -201 -86 -64 -295 -267 -315
-306 -7 -13 9 -2 34 25 25 27 46 52 46 54 0 16 200 191 295 259 101 73 252
156 266 147 7 -4 9 -3 5 4 -5 9 17 22 44 27 3 0 19 8 35 17 61 34 6 17 -82
-26z"/>
<path d="M2185 6491 c-3 -5 -2 -12 3 -15 5 -3 9 1 9 9 0 17 -3 19 -12 6z"/>
<path d="M5305 6490 c-3 -5 -1 -10 4 -10 6 0 11 5 11 10 0 6 -2 10 -4 10 -3 0
-8 -4 -11 -10z"/>
<path d="M6000 6496 c0 -2 8 -10 18 -17 15 -13 16 -12 3 4 -13 16 -21 21 -21
13z"/>
<path d="M1547 6455 c-16 -20 -33 -33 -38 -29 -5 3 -8 0 -7 -8 2 -8 -5 -12
-17 -11 -11 1 -14 0 -7 -3 17 -8 15 -24 -3 -24 -8 0 -14 -3 -13 -7 5 -15 -134
-193 -146 -186 -6 3 -8 3 -4 -1 8 -10 -48 -103 -70 -116 -10 -5 -14 -10 -9
-10 4 0 0 -12 -9 -27 l-16 -28 21 25 c11 14 50 68 87 120 77 108 168 222 233
293 24 26 40 47 35 47 -5 0 -22 -16 -37 -35z"/>
<path d="M5936 6468 c3 -5 10 -6 15 -3 13 9 11 12 -6 12 -8 0 -12 -4 -9 -9z"/>
<path d="M2425 6460 c3 -5 8 -10 11 -10 2 0 4 5 4 10 0 6 -5 10 -11 10 -5 0
-7 -4 -4 -10z"/>
<path d="M5457 6456 c-6 -14 5 -16 75 -16 45 0 78 3 74 7 -4 5 -35 6 -68 4
-39 -2 -63 1 -68 9 -5 8 -9 7 -13 -4z"/>
<path d="M3285 6440 c11 -5 29 -8 40 -8 16 0 15 2 -5 8 -34 11 -60 11 -35 0z"/>
<path d="M5343 6443 c4 -7 -21 -18 -66 -28 -39 -10 -79 -24 -88 -32 -17 -14
-32 -86 -17 -77 4 3 8 15 8 28 0 46 32 61 215 95 48 9 48 10 10 8 -22 0 -47 3
-54 8 -9 5 -12 4 -8 -2z"/>
<path d="M5626 6438 c3 -4 18 -8 33 -8 54 0 224 -50 305 -89 116 -56 205 -151
276 -293 28 -57 57 -128 65 -158 14 -53 14 -53 9 -10 -3 24 -14 64 -24 88 -11
25 -20 51 -20 58 0 8 -4 14 -9 14 -5 0 -12 12 -16 27 -3 15 -10 30 -14 33 -17
13 -41 62 -35 73 4 7 3 9 -1 4 -5 -4 -17 0 -27 9 -14 14 -16 20 -6 33 10 13
10 14 -1 5 -10 -9 -21 -3 -49 27 -20 21 -63 54 -94 72 -32 19 -54 38 -50 42 4
5 2 6 -3 2 -11 -6 -169 46 -161 54 2 2 -12 5 -32 5 -21 1 -63 6 -94 11 -32 5
-55 6 -52 1z"/>
<path d="M2498 6425 c-1 -2 -41 -4 -88 -6 -47 -1 -94 -6 -105 -10 -11 -4 -52
-12 -90 -17 -86 -13 -210 -54 -236 -78 -12 -10 -18 -29 -18 -48 l2 -31 6 35
c5 28 14 39 44 54 77 37 265 75 422 85 55 3 93 9 83 13 -9 4 -18 5 -20 3z"/>
<path d="M2543 6418 c-2 -5 31 -7 74 -7 82 2 75 6 -15 11 -30 2 -56 0 -59 -4z"/>
<path d="M2712 6421 c-11 -7 -11 -9 2 -14 10 -4 16 -1 16 8 0 17 -1 17 -18 6z"/>
<path d="M3228 6423 c7 -3 16 -2 19 1 4 3 -2 6 -13 5 -11 0 -14 -3 -6 -6z"/>
<path d="M3395 6411 c108 -38 187 -62 192 -58 2 3 -47 21 -109 41 -116 37
-172 49 -83 17z"/>
<path d="M5952 6410 c0 -14 2 -19 5 -12 2 6 2 18 0 25 -3 6 -5 1 -5 -13z"/>
<path d="M1957 6409 c7 -7 15 -10 18 -7 3 3 -2 9 -12 12 -14 6 -15 5 -6 -5z"/>
<path d="M2758 6403 c12 -2 32 -2 45 0 12 2 2 4 -23 4 -25 0 -35 -2 -22 -4z"/>
<path d="M2830 6399 c0 -5 10 -9 21 -9 12 0 78 -9 148 -21 230 -38 528 -124
689 -199 45 -21 82 -37 82 -34 0 11 -154 79 -251 111 -60 19 -106 39 -103 44
3 5 -1 6 -9 3 -7 -2 -74 11 -148 30 -74 19 -155 38 -181 42 -29 4 -45 10 -41
17 3 6 1 7 -6 3 -19 -12 -112 4 -105 17 5 9 4 9 -5 1 -8 -7 -27 -8 -52 -4 -21
4 -39 3 -39 -1z"/>
<path d="M6236 6393 c-6 -14 -5 -15 5 -6 7 7 10 15 7 18 -3 3 -9 -2 -12 -12z"/>
<path d="M5020 6390 c-9 -6 -10 -10 -3 -10 6 0 15 5 18 10 8 12 4 12 -15 0z"/>
<path d="M1356 6381 c-4 -5 3 -7 14 -4 23 6 26 13 6 13 -8 0 -17 -4 -20 -9z"/>
<path d="M2067 6379 c7 -7 15 -10 18 -7 3 3 -2 9 -12 12 -14 6 -15 5 -6 -5z"/>
<path d="M3198 6383 c7 -3 16 -2 19 1 4 3 -2 6 -13 5 -11 0 -14 -3 -6 -6z"/>
<path d="M1232 6283 c-83 -111 -124 -173 -114 -173 5 0 14 10 19 23 9 18 111
160 155 215 6 6 8 12 5 12 -4 0 -32 -35 -65 -77z"/>
<path d="M3486 6343 c-6 -14 -5 -15 5 -6 7 7 10 15 7 18 -3 3 -9 -2 -12 -12z"/>
<path d="M6198 6353 c7 -3 16 -2 19 1 4 3 -2 6 -13 5 -11 0 -14 -3 -6 -6z"/>
<path d="M3635 6330 c22 -11 57 -26 78 -35 20 -8 37 -20 37 -26 0 -5 4 -8 9
-4 14 8 161 -67 154 -78 -3 -6 -2 -7 4 -4 12 8 65 -27 56 -37 -5 -4 -3 -7 2
-6 22 5 36 -2 90 -46 43 -36 54 -49 43 -56 -9 -7 -7 -8 8 -3 17 4 31 -5 68
-47 25 -29 46 -48 46 -42 0 20 -144 149 -232 207 -82 55 -326 178 -378 191
-14 3 -7 -3 15 -14z"/>
<path d="M5040 6338 c0 -4 4 -8 9 -8 6 0 12 4 15 8 3 5 -1 9 -9 9 -8 0 -15 -4
-15 -9z"/>
<path d="M5069 6323 c-13 -16 -12 -17 4 -4 9 7 17 15 17 17 0 8 -8 3 -21 -13z"/>
<path d="M6195 6330 c3 -5 8 -10 11 -10 2 0 4 5 4 10 0 6 -5 10 -11 10 -5 0
-7 -4 -4 -10z"/>
<path d="M4830 6280 c0 -5 5 -10 11 -10 5 0 7 5 4 10 -3 6 -8 10 -11 10 -2 0
-4 -4 -4 -10z"/>
<path d="M5157 6270 c-3 -11 -1 -20 4 -20 5 0 9 9 9 20 0 11 -2 20 -4 20 -2 0
-6 -9 -9 -20z"/>
<path d="M6149 6272 c-11 -14 -11 -15 0 -5 7 6 20 9 27 6 8 -3 14 -3 14 0 0
14 -30 14 -41 -1z"/>
<path d="M4800 6230 c-36 -23 -47 -26 -60 -17 -13 10 -13 10 -2 -4 10 -14 8
-19 -14 -33 -14 -10 -32 -15 -40 -12 -8 3 -13 2 -10 -2 7 -11 -3 -23 -47 -55
-20 -16 -42 -25 -47 -22 -6 4 -9 3 -8 -2 4 -10 -194 -208 -205 -205 -5 1 -6
-2 -3 -7 3 -4 -10 -29 -29 -55 l-36 -46 0 -952 c0 -727 -3 -956 -12 -967 -9
-12 -9 -13 1 -7 10 6 12 -90 10 -478 l-3 -485 25 6 c25 6 73 43 66 51 -2 2
-14 -6 -25 -17 -12 -12 -28 -21 -36 -21 -13 0 -15 166 -15 1433 l0 1433 33 46
c83 117 247 265 421 380 69 45 92 56 102 47 8 -7 12 -22 9 -38 -5 -25 -5 -25
5 -3 11 26 -2 62 -23 61 -7 0 -32 -13 -57 -29z"/>
<path d="M3748 6233 c7 -3 16 -2 19 1 4 3 -2 6 -13 5 -11 0 -14 -3 -6 -6z"/>
<path d="M5148 6215 c-3 -14 -1 -25 3 -25 5 0 9 11 9 25 0 14 -2 25 -4 25 -2
0 -6 -11 -8 -25z"/>
<path d="M6383 6224 c0 -6 9 -9 19 -6 27 7 29 17 4 17 -13 0 -23 -5 -23 -11z"/>
<path d="M6446 6223 c-6 -14 -5 -15 5 -6 7 7 10 15 7 18 -3 3 -9 -2 -12 -12z"/>
<path d="M1959 6028 c0 -112 0 -234 1 -271 1 -44 -3 -74 -12 -85 -9 -11 -9
-14 -1 -8 10 5 13 -28 16 -141 1 -81 4 44 5 280 1 235 0 427 -3 427 -3 0 -5
-91 -6 -202z"/>
<path d="M5010 6215 c-7 -9 -8 -15 -2 -15 5 0 12 7 16 15 3 8 4 15 2 15 -2 0
-9 -7 -16 -15z"/>
<path d="M1831 5381 c-1 -459 2 -832 5 -829 3 3 5 212 5 464 0 342 3 462 12
473 9 12 9 13 0 7 -17 -10 -18 85 -1 102 9 9 9 12 0 12 -10 0 -12 50 -11 215
1 154 5 213 13 208 6 -4 5 0 -2 9 -8 10 -12 35 -10 64 3 45 5 48 37 56 18 5
31 11 29 13 -2 3 -19 1 -36 -4 -34 -10 -40 -4 -19 18 8 9 8 12 0 7 -6 -3 -14
0 -16 6 -3 7 -6 -362 -6 -821z"/>
<path d="M3823 6203 c4 -3 1 -13 -6 -22 -11 -14 -10 -14 5 -2 16 12 16 31 1
31 -4 0 -3 -3 0 -7z"/>
<path d="M4540 6190 c-8 -5 -10 -10 -5 -10 6 0 17 5 25 10 8 5 11 10 5 10 -5
0 -17 -5 -25 -10z"/>
<path d="M4640 6190 c8 -5 20 -10 25 -10 6 0 3 5 -5 10 -8 5 -19 10 -25 10 -5
0 -3 -5 5 -10z"/>
<path d="M5141 6152 c0 -18 -5 -31 -9 -28 -5 3 -6 -9 -3 -27 l5 -32 8 40 c5
22 7 49 5 60 -3 11 -5 6 -6 -13z"/>
<path d="M4863 6135 c0 -22 2 -30 4 -17 2 12 2 30 0 40 -3 9 -5 -1 -4 -23z"/>
<path d="M4935 6160 c4 -6 11 -8 16 -5 14 9 11 15 -7 15 -8 0 -12 -5 -9 -10z"/>
<path d="M6380 6166 c0 -7 40 -14 44 -7 3 4 -6 8 -20 9 -13 1 -24 0 -24 -2z"/>
<path d="M6343 6145 c0 -8 4 -12 9 -9 5 3 6 10 3 15 -9 13 -12 11 -12 -6z"/>
<path d="M4600 6129 c0 -5 5 -7 10 -4 6 3 10 8 10 11 0 2 -4 4 -10 4 -5 0 -10
-5 -10 -11z"/>
<path d="M6241 6131 c-8 -5 -9 -11 -3 -15 5 -3 12 1 16 9 6 17 6 18 -13 6z"/>
<path d="M7309 6121 c6 -10 9 -20 8 -22 -1 -2 0 -3 2 -1 7 4 72 -102 134 -218
16 -30 34 -59 40 -65 16 -16 -76 154 -133 243 -29 45 -54 82 -56 82 -3 0 0 -8
5 -19z"/>
<path d="M3795 6117 c40 -27 115 -68 115 -63 0 6 -118 76 -128 76 -3 0 2 -6
13 -13z"/>
<path d="M6290 6116 c0 -2 7 -7 16 -10 8 -3 12 -2 9 4 -6 10 -25 14 -25 6z"/>
<path d="M1094 6088 c-4 -7 -14 -24 -23 -38 -15 -25 -15 -25 6 -7 12 10 23 27
26 38 6 22 2 25 -9 7z"/>
<path d="M4841 6015 c-13 -86 -13 -127 -1 -75 11 46 23 150 17 150 -3 0 -10
-34 -16 -75z"/>
<path d="M1145 6070 c3 -5 8 -10 11 -10 2 0 4 5 4 10 0 6 -5 10 -11 10 -5 0
-7 -4 -4 -10z"/>
<path d="M4030 6076 c0 -2 9 -6 20 -9 11 -3 18 -1 14 4 -5 9 -34 13 -34 5z"/>
<path d="M3925 6050 c-3 -5 9 -19 27 -31 18 -12 49 -36 68 -53 19 -17 29 -24
22 -15 -6 9 -8 19 -4 23 4 4 0 6 -8 4 -8 -2 -14 3 -12 10 1 8 -2 11 -7 8 -5
-4 -26 9 -45 28 -20 18 -39 30 -41 26z"/>
<path d="M5127 6053 c-3 -5 -7 -33 -11 -63 -7 -65 -1 -56 12 18 9 50 9 61 -1
45z"/>
<path d="M4015 6030 c-3 -6 1 -7 9 -4 18 7 21 14 7 14 -6 0 -13 -4 -16 -10z"/>
<path d="M6310 6030 c0 -5 -8 -7 -17 -3 -10 3 -15 3 -12 -1 4 -4 16 -8 27 -11
15 -2 19 0 15 11 -6 16 -13 19 -13 4z"/>
<path d="M6409 6038 c-6 -12 -4 -46 2 -42 4 2 5 12 2 21 -5 12 -3 14 7 8 9 -5
11 -4 6 3 -7 11 -14 15 -17 10z"/>
<path d="M5076 6017 c3 -10 9 -15 12 -12 3 3 0 11 -7 18 -10 9 -11 8 -5 -6z"/>
<path d="M6592 6025 c0 -5 6 -26 13 -45 7 -19 14 -28 14 -20 0 8 -6 29 -14 45
-7 17 -13 26 -13 20z"/>
<path d="M1040 5998 c-12 -22 -12 -22 6 -6 10 10 15 20 12 24 -4 3 -12 -5 -18
-18z"/>
<path d="M1174 5956 c-16 -25 -32 -42 -38 -39 -5 3 -6 1 -2 -5 4 -7 -9 -36
-28 -65 -20 -30 -36 -57 -36 -60 0 -3 -18 -38 -41 -77 -22 -40 -38 -74 -35
-77 2 -3 19 23 36 57 30 59 126 224 164 283 10 15 16 27 13 27 -3 0 -18 -20
-33 -44z"/>
<path d="M7280 5986 c0 -2 7 -7 16 -10 8 -3 12 -2 9 4 -6 10 -25 14 -25 6z"/>
<path d="M972 5883 c-56 -100 -108 -202 -123 -241 -16 -43 -5 -23 53 88 90
172 101 189 112 183 6 -3 8 -3 4 1 -4 5 -3 19 2 32 18 45 1 24 -48 -63z"/>
<path d="M4885 5940 c-3 -6 1 -7 9 -4 18 7 21 14 7 14 -6 0 -13 -4 -16 -10z"/>
<path d="M7278 5918 c90 -148 190 -346 253 -500 23 -59 44 -106 46 -104 19 19
-285 636 -313 636 -3 0 3 -15 14 -32z"/>
<path d="M4098 5896 c22 -23 46 -52 56 -66 15 -22 16 -145 16 -1484 0 -803 2
-1457 6 -1454 3 3 5 405 5 892 -1 508 3 886 8 886 5 0 12 7 15 16 5 14 4 15
-9 4 -13 -11 -15 48 -14 548 0 619 4 585 -65 651 -19 19 -33 37 -31 41 2 4 -3
7 -11 7 -9 0 0 -16 24 -41z"/>
<path d="M6328 5928 c5 -5 16 -8 23 -6 8 3 3 7 -10 11 -17 4 -21 3 -13 -5z"/>
<path d="M6622 5930 c-1 -8 5 -42 12 -75 8 -33 14 -49 14 -35 0 28 -25 133
-26 110z"/>
<path d="M5098 5885 c-2 -19 0 -35 4 -35 4 0 8 16 8 35 0 19 -2 35 -4 35 -2 0
-6 -16 -8 -35z"/>
<path d="M2377 5893 c-3 -5 23 -7 56 -5 34 2 117 -3 185 -11 68 -7 125 -10
127 -7 5 7 -232 30 -312 30 -28 0 -54 -3 -56 -7z"/>
<path d="M4816 5844 c-4 -31 -5 -59 -2 -61 2 -3 8 21 11 52 4 31 5 58 3 61 -3
2 -8 -21 -12 -52z"/>
<path d="M2373 5850 c2 -24 4 -25 92 -28 49 -2 87 -1 84 2 -2 2 -40 6 -84 7
-71 2 -81 4 -87 23 -6 19 -7 18 -5 -4z"/>
<path d="M2557 5856 c-4 -10 -1 -13 8 -9 8 3 12 9 9 14 -7 12 -11 11 -17 -5z"/>
<path d="M2773 5863 c9 -2 23 -2 30 0 6 3 -1 5 -18 5 -16 0 -22 -2 -12 -5z"/>
<path d="M1050 5850 c-9 -6 -10 -10 -3 -10 6 0 15 5 18 10 8 12 4 12 -15 0z"/>
<path d="M2833 5853 c9 -2 25 -2 35 0 9 3 1 5 -18 5 -19 0 -27 -2 -17 -5z"/>
<path d="M2950 5834 c36 -7 74 -13 85 -12 11 0 -9 6 -45 14 -36 7 -74 13 -85
12 -11 0 9 -6 45 -14z"/>
<path d="M5025 5840 c-3 -5 -2 -10 4 -10 5 0 13 5 16 10 3 6 2 10 -4 10 -5 0
-13 -4 -16 -10z"/>
<path d="M6377 5835 c3 -8 9 -12 14 -9 12 7 11 11 -5 17 -10 4 -13 1 -9 -8z"/>
<path d="M5087 5813 c-3 -15 -9 -50 -12 -76 -4 -27 -8 -56 -10 -65 -14 -75
-46 -305 -43 -313 2 -5 21 98 42 231 21 132 36 243 33 246 -3 3 -7 -7 -10 -23z"/>
<path d="M2574 5819 c-13 -5 -2 -8 31 -9 28 -1 57 -3 65 -4 66 -13 212 -27
217 -22 3 3 -5 6 -18 7 -13 0 -33 2 -44 4 -21 5 -59 10 -166 23 -37 4 -75 5
-85 1z"/>
<path d="M4867 5819 c7 -7 15 -10 18 -7 3 3 -2 9 -12 12 -14 6 -15 5 -6 -5z"/>
<path d="M6322 5810 c0 -14 2 -19 5 -12 2 6 2 18 0 25 -3 6 -5 1 -5 -13z"/>
<path d="M3068 5813 c6 -2 18 -2 25 0 6 3 1 5 -13 5 -14 0 -19 -2 -12 -5z"/>
<path d="M3213 5781 c64 -15 105 -30 100 -35 -4 -5 -3 -6 4 -2 7 4 41 0 74 -9
34 -8 64 -14 66 -12 8 9 -312 89 -342 86 -5 -1 39 -13 98 -28z"/>
<path d="M7518 5763 c10 -21 27 -56 39 -78 20 -39 85 -191 97 -229 4 -10 9
-17 12 -14 10 10 -146 358 -161 358 -2 0 4 -17 13 -37z"/>
<path d="M6645 5780 c3 -5 8 -10 11 -10 2 0 4 5 4 10 0 6 -5 10 -11 10 -5 0
-7 -4 -4 -10z"/>
<path d="M2908 5773 c7 -3 16 -2 19 1 4 3 -2 6 -13 5 -11 0 -14 -3 -6 -6z"/>
<path d="M4818 5773 c-12 -3 -18 -14 -17 -31 1 -21 2 -23 6 -7 3 11 13 25 22
32 17 13 16 13 -11 6z"/>
<path d="M6331 5703 c0 -46 2 -83 7 -83 4 0 6 26 4 57 -5 101 -9 111 -11 26z"/>
<path d="M2990 5761 c58 -14 118 -22 95 -12 -11 5 -45 11 -75 14 -42 5 -46 4
-20 -2z"/>
<path d="M4856 5758 c3 -5 10 -6 15 -3 13 9 11 12 -6 12 -8 0 -12 -4 -9 -9z"/>
<path d="M6648 5650 c-2 -61 0 -110 5 -110 4 0 7 50 7 110 0 61 -2 110 -4 110
-3 0 -6 -50 -8 -110z"/>
<path d="M3131 5740 c-18 -4 -9 -8 39 -18 34 -7 64 -11 67 -9 2 3 -13 8 -34
12 -21 4 -40 10 -43 14 -3 4 -16 5 -29 1z"/>
<path d="M7454 5724 c-18 -14 -18 -15 4 -4 12 6 22 13 22 15 0 8 -5 6 -26 -11z"/>
<path d="M4276 5713 c-6 -14 -5 -15 5 -6 7 7 10 15 7 18 -3 3 -9 -2 -12 -12z"/>
<path d="M3250 5710 c0 -4 15 -12 33 -16 17 -3 77 -22 133 -40 142 -47 142
-47 111 -29 -16 9 -36 18 -45 20 -56 13 -131 42 -125 49 4 4 1 4 -8 1 -8 -3
-34 1 -57 9 -23 8 -42 11 -42 6z"/>
<path d="M3500 5705 c19 -7 34 -17 33 -23 -1 -6 7 -7 20 -4 19 5 18 8 -18 24
-22 9 -47 17 -55 17 -8 0 1 -6 20 -14z"/>
<path d="M4915 5710 c3 -5 8 -10 11 -10 2 0 4 5 4 10 0 6 -5 10 -11 10 -5 0
-7 -4 -4 -10z"/>
<path d="M5010 5711 c0 -6 4 -13 10 -16 6 -3 7 1 4 9 -7 18 -14 21 -14 7z"/>
<path d="M4786 5644 c-4 -37 -5 -69 -2 -71 2 -3 7 25 11 62 4 36 5 68 3 71 -3
2 -8 -25 -12 -62z"/>
<path d="M6350 5696 c0 -2 7 -7 16 -10 8 -3 12 -2 9 4 -6 10 -25 14 -25 6z"/>
<path d="M3629 5655 c30 -14 56 -23 58 -21 5 5 -84 46 -101 46 -6 0 13 -11 43
-25z"/>
<path d="M6568 5663 c7 -3 16 -2 19 1 4 3 -2 6 -13 5 -11 0 -14 -3 -6 -6z"/>
<path d="M3703 5623 c4 -3 1 -13 -6 -22 -11 -14 -10 -14 6 -2 37 29 130 -40
98 -72 -8 -8 -30 -2 -78 20 -80 37 -154 65 -159 61 -2 -2 49 -25 112 -52 95
-39 117 -46 130 -35 27 22 12 52 -41 81 -47 26 -76 36 -62 21z"/>
<path d="M947 5542 c-49 -105 -88 -204 -82 -210 4 -5 12 13 40 88 7 19 29 71
49 114 20 44 35 81 33 82 -2 2 -20 -31 -40 -74z"/>
<path d="M806 5549 c-15 -34 -24 -64 -22 -67 3 -3 8 4 12 14 4 10 15 39 25 63
11 24 18 46 16 48 -3 2 -16 -24 -31 -58z"/>
<path d="M5006 5601 c-4 -5 3 -7 14 -4 23 6 26 13 6 13 -8 0 -17 -4 -20 -9z"/>
<path d="M6326 5554 c-4 -31 -5 -59 -2 -61 2 -3 8 21 11 52 4 31 5 58 3 61 -3
2 -8 -21 -12 -52z"/>
<path d="M4868 5583 c7 -3 16 -2 19 1 4 3 -2 6 -13 5 -11 0 -14 -3 -6 -6z"/>
<path d="M6448 5573 c6 -2 18 -2 25 0 6 3 1 5 -13 5 -14 0 -19 -2 -12 -5z"/>
<path d="M6420 5561 c0 -6 4 -13 10 -16 6 -3 7 1 4 9 -7 18 -14 21 -14 7z"/>
<path d="M4766 5508 c-4 -29 -9 -69 -11 -88 -4 -31 -4 -32 4 -8 11 32 25 148
18 148 -2 0 -7 -24 -11 -52z"/>
<path d="M6374 5538 l-19 -23 23 19 c12 11 22 21 22 23 0 8 -8 2 -26 -19z"/>
<path d="M7520 5556 c0 -3 9 -10 20 -16 11 -6 20 -8 20 -6 0 3 -9 10 -20 16
-11 6 -20 8 -20 6z"/>
<path d="M4796 5541 c-4 -5 3 -7 14 -4 23 6 26 13 6 13 -8 0 -17 -4 -20 -9z"/>
<path d="M6636 5495 c-3 -22 -13 -71 -22 -109 -8 -37 -13 -70 -10 -73 7 -7 48
183 44 203 -3 12 -7 4 -12 -21z"/>
<path d="M1888 5483 c7 -3 16 -2 19 1 4 3 -2 6 -13 5 -11 0 -14 -3 -6 -6z"/>
<path d="M4265 5470 c4 -6 11 -8 16 -5 14 9 11 15 -7 15 -8 0 -12 -5 -9 -10z"/>
<path d="M6310 5460 c0 -11 2 -20 4 -20 2 0 6 9 9 20 3 11 1 20 -4 20 -5 0 -9
-9 -9 -20z"/>
<path d="M757 5428 c-9 -23 -15 -44 -12 -46 4 -5 15 19 29 66 12 38 0 24 -17
-20z"/>
<path d="M1907 5449 c7 -7 15 -10 18 -7 3 3 -2 9 -12 12 -14 6 -15 5 -6 -5z"/>
<path d="M4240 5440 c6 -11 13 -20 16 -20 2 0 0 9 -6 20 -6 11 -13 20 -16 20
-2 0 0 -9 6 -20z"/>
<path d="M6300 5415 c0 -30 -53 -172 -87 -235 -96 -177 -218 -311 -389 -428
-11 -7 1 -2 25 10 56 29 167 127 227 200 47 56 48 57 68 40 21 -17 21 -17 3 4
-18 21 -17 23 36 105 29 46 68 120 84 164 32 82 50 155 39 155 -3 0 -6 -7 -6
-15z"/>
<path d="M6569 5413 c-13 -16 -12 -17 3 -5 9 8 23 10 29 6 8 -4 9 -3 5 4 -10
17 -21 15 -37 -5z"/>
<path d="M7676 5410 c4 -14 13 -38 20 -55 11 -24 13 -25 8 -5 -4 14 -13 39
-20 55 -11 24 -13 25 -8 5z"/>
<path d="M4195 5380 c-3 -6 1 -7 9 -4 18 7 21 14 7 14 -6 0 -13 -4 -16 -10z"/>
<path d="M4716 5184 c-15 -107 -25 -198 -22 -201 3 -4 6 -4 6 -2 0 8 28 215
41 301 7 50 17 84 22 81 6 -3 7 -1 3 5 -4 7 -10 12 -14 12 -4 0 -20 -88 -36
-196z"/>
<path d="M715 5319 c-9 -28 -15 -52 -13 -55 3 -2 11 15 18 38 8 24 18 49 23
56 6 8 6 12 -1 12 -6 0 -18 -23 -27 -51z"/>
<path d="M1962 5350 c0 -14 2 -19 5 -12 2 6 2 18 0 25 -3 6 -5 1 -5 -13z"/>
<path d="M6310 5359 c0 -5 5 -7 10 -4 6 3 10 8 10 11 0 2 -4 4 -10 4 -5 0 -10
-5 -10 -11z"/>
<path d="M2373 5349 c-10 -10 -6 -56 6 -63 10 -7 177 -19 171 -13 -3 2 -39 8
-79 11 -41 4 -79 9 -83 12 -4 3 -8 17 -8 31 l0 25 118 -5 c83 -4 99 -3 57 3
-88 12 -170 11 -182 -1z"/>
<path d="M2685 5327 c39 -7 72 -12 74 -10 11 8 -10 12 -74 17 l-70 5 70 -12z"/>
<path d="M7616 5322 c-3 -5 1 -9 9 -9 8 0 12 4 9 9 -3 4 -7 8 -9 8 -2 0 -6 -4
-9 -8z"/>
<path d="M851 5313 c-1 -6 -4 -20 -7 -30 -5 -17 -5 -17 6 0 6 10 9 23 6 30 -3
9 -5 9 -5 0z"/>
<path d="M1962 5290 c0 -19 2 -27 5 -17 2 9 2 25 0 35 -3 9 -5 1 -5 -18z"/>
<path d="M2788 5313 c12 -2 30 -2 40 0 9 3 -1 5 -23 4 -22 0 -30 -2 -17 -4z"/>
<path d="M4953 5305 c0 -8 4 -12 9 -9 5 3 6 10 3 15 -9 13 -12 11 -12 -6z"/>
<path d="M5006 5289 c-3 -17 -5 -43 -5 -58 1 -14 5 -2 10 28 10 58 6 83 -5 30z"/>
<path d="M7720 5270 c24 -61 25 -74 4 -66 -9 3 -12 2 -9 -5 4 -6 13 -8 20 -5
8 3 16 -5 20 -21 3 -14 8 -23 10 -21 8 7 -47 168 -56 168 -5 0 0 -23 11 -50z"/>
<path d="M2858 5303 c6 -2 18 -2 25 0 6 3 1 5 -13 5 -14 0 -19 -2 -12 -5z"/>
<path d="M2915 5293 c103 -24 135 -29 135 -23 0 5 -28 13 -63 19 -61 11 -113
14 -72 4z"/>
<path d="M4215 5290 c-3 -6 1 -7 9 -4 18 7 21 14 7 14 -6 0 -13 -4 -16 -10z"/>
<path d="M6576 5248 c-61 -175 -231 -435 -274 -422 -13 5 -14 4 -4 -4 11 -7 3
-20 -37 -57 -85 -79 -106 -95 -118 -91 -7 3 -10 -1 -6 -10 3 -8 -1 -14 -11
-14 -9 0 -16 -4 -16 -8 0 -8 -116 -78 -193 -116 -20 -11 -35 -21 -33 -23 6 -6
102 44 181 95 186 119 333 277 443 472 36 65 94 208 90 222 -2 5 -12 -14 -22
-44z"/>
<path d="M7580 5299 c0 -4 16 -53 35 -110 37 -112 48 -124 15 -16 -20 65 -49
138 -50 126z"/>
<path d="M2561 5266 c2 -2 38 -6 79 -9 46 -3 63 -2 45 3 -30 8 -132 13 -124 6z"/>
<path d="M3209 5229 c194 -48 412 -119 405 -130 -3 -5 3 -6 12 -2 14 5 13 8
-8 19 -58 30 -509 156 -550 153 -7 -1 56 -18 141 -40z"/>
<path d="M681 5219 c-6 -18 -11 -37 -10 -43 0 -6 7 7 15 28 8 22 12 41 10 43
-2 2 -9 -10 -15 -28z"/>
<path d="M1960 5089 c0 -125 -3 -159 -12 -153 -10 6 -10 5 -1 -7 9 -12 13 -97
16 -320 2 -233 3 -193 5 169 1 259 0 472 -3 472 -3 0 -5 -72 -5 -161z"/>
<path d="M2738 5243 c12 -2 30 -2 40 0 9 3 -1 5 -23 4 -22 0 -30 -2 -17 -4z"/>
<path d="M3025 5240 c-3 -5 -1 -10 4 -10 6 0 11 5 11 10 0 6 -2 10 -4 10 -3 0
-8 -4 -11 -10z"/>
<path d="M768 5233 c7 -3 16 -2 19 1 4 3 -2 6 -13 5 -11 0 -14 -3 -6 -6z"/>
<path d="M2818 5233 c6 -2 18 -2 25 0 6 3 1 5 -13 5 -14 0 -19 -2 -12 -5z"/>
<path d="M2860 5229 c0 -5 9 -9 20 -9 11 0 20 2 20 4 0 2 -9 6 -20 9 -11 3
-20 1 -20 -4z"/>
<path d="M814 5208 c-4 -13 -9 -27 -10 -33 -1 -5 -14 -48 -28 -94 -24 -77 -36
-140 -16 -81 30 88 69 224 66 227 -2 3 -8 -6 -12 -19z"/>
<path d="M2920 5222 c0 -4 72 -22 161 -41 88 -18 188 -42 221 -53 34 -10 66
-17 72 -15 6 2 -13 9 -41 16 -32 8 -50 17 -46 24 3 5 1 7 -5 3 -6 -3 -53 3
-104 15 -146 34 -171 39 -203 45 -16 3 -36 7 -42 9 -7 2 -13 1 -13 -3z"/>
<path d="M731 5194 c0 -11 3 -14 6 -6 3 7 2 16 -1 19 -3 4 -6 -2 -5 -13z"/>
<path d="M4816 5197 c3 -10 9 -15 12 -12 3 3 0 11 -7 18 -10 9 -11 8 -5 -6z"/>
<path d="M4987 5180 c-3 -11 -1 -20 4 -20 5 0 9 9 9 20 0 11 -2 20 -4 20 -2 0
-6 -9 -9 -20z"/>
<path d="M660 5149 c0 -5 5 -7 10 -4 6 3 10 8 10 11 0 2 -4 4 -10 4 -5 0 -10
-5 -10 -11z"/>
<path d="M745 5150 c3 -5 8 -10 11 -10 2 0 4 5 4 10 0 6 -5 10 -11 10 -5 0 -7
-4 -4 -10z"/>
<path d="M7775 5120 c19 -90 27 -120 31 -120 7 0 -7 71 -23 110 -7 19 -11 24
-8 10z"/>
<path d="M646 5108 c-39 -141 -83 -348 -73 -348 3 0 11 32 17 70 7 39 15 68
20 65 4 -3 6 3 4 13 -3 9 6 62 21 116 14 55 24 101 21 103 -2 2 -6 -7 -10 -19z"/>
<path d="M6248 5123 c7 -3 16 -2 19 1 4 3 -2 6 -13 5 -11 0 -14 -3 -6 -6z"/>
<path d="M4975 5093 c-13 -46 -14 -53 -5 -58 4 -2 10 14 13 38 7 49 3 59 -8
20z"/>
<path d="M3405 5100 c27 -12 43 -12 25 0 -8 5 -22 9 -30 9 -10 0 -8 -3 5 -9z"/>
<path d="M1895 5090 c-3 -5 -1 -10 4 -10 6 0 11 5 11 10 0 6 -2 10 -4 10 -3 0
-8 -4 -11 -10z"/>
<path d="M3450 5089 c0 -5 6 -9 13 -9 6 0 68 -23 136 -50 69 -27 126 -48 128
-46 2 2 -37 20 -87 41 -49 21 -90 41 -90 46 0 5 -6 6 -14 3 -7 -3 -30 2 -50
10 -20 8 -36 11 -36 5z"/>
<path d="M3666 5085 c10 -8 24 -15 29 -15 6 0 34 -11 63 -25 41 -19 52 -29 52
-48 0 -32 -8 -37 -37 -26 -14 5 -28 7 -31 5 -3 -3 8 -10 23 -16 33 -13 55 1
55 35 0 28 -21 45 -96 78 -69 30 -87 34 -58 12z"/>
<path d="M4846 5081 c-4 -6 -1 -11 6 -11 9 0 9 -3 -2 -10 -9 -6 -10 -10 -3
-10 17 0 23 14 14 29 -6 9 -11 10 -15 2z"/>
<path d="M7651 5075 c1 -19 18 -51 18 -35 0 8 -4 22 -9 30 -5 8 -9 11 -9 5z"/>
<path d="M6446 5057 c3 -10 9 -15 12 -12 3 3 0 11 -7 18 -10 9 -11 8 -5 -6z"/>
<path d="M4778 5023 c7 -3 16 -2 19 1 4 3 -2 6 -13 5 -11 0 -14 -3 -6 -6z"/>
<path d="M1856 5007 c3 -10 9 -15 12 -12 3 3 0 11 -7 18 -10 9 -11 8 -5 -6z"/>
<path d="M4955 4965 c-4 -31 -5 -58 -2 -61 2 -3 8 20 12 51 3 31 4 59 2 62 -3
2 -9 -21 -12 -52z"/>
<path d="M7675 4990 c14 -75 53 -224 54 -207 1 20 -48 229 -56 237 -3 3 -2
-11 2 -30z"/>
<path d="M6370 5000 c0 -5 5 -10 11 -10 5 0 7 5 4 10 -3 6 -8 10 -11 10 -2 0
-4 -4 -4 -10z"/>
<path d="M4710 4981 c0 -6 4 -13 10 -16 6 -3 7 1 4 9 -7 18 -14 21 -14 7z"/>
<path d="M7811 4985 c-1 -5 6 -43 16 -83 15 -64 15 -75 2 -84 -12 -8 -11 -9 2
-5 13 4 18 -10 29 -81 7 -48 15 -81 17 -75 5 15 -42 279 -56 314 -5 13 -10 20
-10 14z"/>
<path d="M741 4957 c-1 -10 -5 -16 -10 -12 -5 3 -13 0 -17 -6 -5 -8 -3 -9 5
-5 13 8 9 -30 -10 -104 -5 -19 -9 -44 -8 -55 0 -11 11 25 25 80 13 55 22 105
20 110 -3 6 -5 2 -5 -8z"/>
<path d="M4671 4884 c-7 -47 -10 -88 -8 -91 3 -2 10 35 17 82 7 47 10 88 8 91
-3 2 -10 -35 -17 -82z"/>
<path d="M4850 4929 c0 -5 5 -7 10 -4 6 3 10 8 10 11 0 2 -4 4 -10 4 -5 0 -10
-5 -10 -11z"/>
<path d="M7745 4890 c3 -5 8 -10 11 -10 2 0 4 5 4 10 0 6 -5 10 -11 10 -5 0
-7 -4 -4 -10z"/>
<path d="M4936 4839 c-4 -28 -5 -53 -3 -56 3 -2 8 19 12 47 4 28 5 53 2 56 -2
3 -7 -19 -11 -47z"/>
<path d="M6086 4882 c-3 -5 1 -9 9 -9 8 0 12 4 9 9 -3 4 -7 8 -9 8 -2 0 -6 -4
-9 -8z"/>
<path d="M685 4870 c-3 -5 -1 -10 4 -10 6 0 11 5 11 10 0 6 -2 10 -4 10 -3 0
-8 -4 -11 -10z"/>
<path d="M6260 4866 c0 -2 7 -9 15 -16 13 -11 14 -10 9 4 -5 14 -24 23 -24 12z"/>
<path d="M4725 4850 c3 -5 8 -10 11 -10 2 0 4 5 4 10 0 6 -5 10 -11 10 -5 0
-7 -4 -4 -10z"/>
<path d="M2377 4803 c-4 -3 -7 -11 -7 -17 0 -6 4 -5 9 3 6 9 22 12 50 9 22 -2
41 0 41 4 0 10 -84 11 -93 1z"/>
<path d="M2530 4790 c30 -5 73 -8 95 -8 39 1 38 1 -10 8 -27 5 -70 8 -95 8
l-45 -1 55 -7z"/>
<path d="M2705 4769 c22 -4 51 -8 65 -7 16 0 11 3 -15 9 -22 4 -51 8 -65 7
-16 0 -11 -3 15 -9z"/>
<path d="M4641 4689 c-7 -50 -10 -93 -7 -96 3 -4 6 -2 7 3 0 5 2 18 4 29 8 42
17 155 13 155 -2 0 -10 -41 -17 -91z"/>
<path d="M1907 4759 c7 -7 15 -10 18 -7 3 3 -2 9 -12 12 -14 6 -15 5 -6 -5z"/>
<path d="M2372 4755 c3 -17 11 -20 63 -21 52 -1 54 0 10 3 -32 2 -55 10 -63
21 -13 16 -14 15 -10 -3z"/>
<path d="M2808 4753 c6 -2 18 -2 25 0 6 3 1 5 -13 5 -14 0 -19 -2 -12 -5z"/>
<path d="M4921 4736 c-1 -25 -3 -27 -18 -15 -17 12 -17 12 -1 -6 22 -23 31
-16 25 22 l-4 28 -2 -29z"/>
<path d="M7736 4694 c8 -37 19 -97 24 -133 l9 -66 -4 72 c-5 76 -23 172 -36
186 -4 5 -1 -22 7 -59z"/>
<path d="M552 4672 c-7 -42 -14 -106 -16 -142 -2 -36 -1 -46 1 -22 3 31 8 42
21 42 14 0 14 2 3 9 -10 7 -12 20 -7 52 12 70 19 139 14 139 -3 0 -10 -35 -16
-78z"/>
<path d="M688 4727 c-3 -19 -2 -25 4 -19 6 6 8 18 6 28 -3 14 -5 12 -10 -9z"/>
<path d="M2878 4743 c21 -3 32 -10 33 -21 0 -10 3 -12 6 -5 3 8 20 11 51 8 45
-4 44 -4 -13 10 -33 8 -71 14 -85 13 -18 -1 -16 -2 8 -5z"/>
<path d="M2507 4730 c4 -4 44 -10 88 -13 54 -4 67 -3 40 2 -64 13 -138 19
-128 11z"/>
<path d="M5720 4700 c-41 -21 -72 -39 -67 -40 10 0 147 69 147 75 0 7 3 8 -80
-35z"/>
<path d="M4806 4717 c3 -10 9 -15 12 -12 3 3 0 11 -7 18 -10 9 -11 8 -5 -6z"/>
<path d="M3065 4705 c68 -18 103 -17 40 1 -27 7 -59 13 -70 13 -11 -1 3 -7 30
-14z"/>
<path d="M2713 4703 c9 -2 23 -2 30 0 6 3 -1 5 -18 5 -16 0 -22 -2 -12 -5z"/>
<path d="M6068 4703 c7 -3 16 -2 19 1 4 3 -2 6 -13 5 -11 0 -14 -3 -6 -6z"/>
<path d="M2830 4685 c41 -9 128 -27 193 -41 65 -15 120 -24 122 -22 7 7 -270
66 -335 72 -48 5 -46 4 20 -9z"/>
<path d="M677 4670 c-3 -11 -1 -23 4 -26 5 -3 9 6 9 20 0 31 -6 34 -13 6z"/>
<path d="M3161 4686 c5 -5 246 -66 256 -65 18 1 -48 22 -142 45 -97 23 -123
28 -114 20z"/>
<path d="M4905 4626 c-7 -66 -3 -86 18 -86 8 0 7 3 -2 9 -10 7 -12 24 -6 75 3
36 4 66 2 66 -3 0 -9 -29 -12 -64z"/>
<path d="M590 4669 c0 -5 5 -7 10 -4 6 3 10 8 10 11 0 2 -4 4 -10 4 -5 0 -10
-5 -10 -11z"/>
<path d="M4215 4669 c-3 -4 2 -6 10 -5 21 3 28 13 10 13 -9 0 -18 -4 -20 -8z"/>
<path d="M5529 4624 c-104 -35 -243 -60 -407 -70 -57 -4 -98 -10 -91 -15 7 -4
22 -6 33 -4 12 2 50 6 86 9 202 19 351 50 441 90 73 33 53 30 -62 -10z"/>
<path d="M7820 4650 c0 -5 5 -10 11 -10 5 0 7 5 4 10 -3 6 -8 10 -11 10 -2 0
-4 -4 -4 -10z"/>
<path d="M5630 4632 c0 -5 7 -9 15 -9 8 0 12 4 9 9 -3 4 -9 8 -15 8 -5 0 -9
-4 -9 -8z"/>
<path d="M7878 4605 c2 -19 6 -35 8 -35 2 0 4 16 4 35 0 19 -4 35 -8 35 -4 0
-6 -16 -4 -35z"/>
<path d="M672 4610 c0 -14 2 -19 5 -12 2 6 2 18 0 25 -3 6 -5 1 -5 -13z"/>
<path d="M3175 4620 c-16 -7 -17 -9 -3 -9 9 -1 20 4 23 9 7 11 7 11 -20 0z"/>
<path d="M4678 4623 c7 -3 16 -2 19 1 4 3 -2 6 -13 5 -11 0 -14 -3 -6 -6z"/>
<path d="M3285 4610 c-3 -5 -1 -10 4 -10 6 0 11 5 11 10 0 6 -2 10 -4 10 -3 0
-8 -4 -11 -10z"/>
<path d="M3430 4616 c0 -7 101 -38 106 -33 3 2 -18 12 -45 21 -53 17 -61 19
-61 12z"/>
<path d="M3215 4600 c11 -5 27 -9 35 -9 9 0 8 4 -5 9 -11 5 -27 9 -35 9 -9 0
-8 -4 5 -9z"/>
<path d="M4670 4593 c8 -3 22 -11 30 -17 13 -10 13 -9 1 7 -7 9 -21 17 -30 16
-13 0 -14 -1 -1 -6z"/>
<path d="M3278 4583 c6 -2 18 -2 25 0 6 3 1 5 -13 5 -14 0 -19 -2 -12 -5z"/>
<path d="M5866 4577 c3 -10 9 -15 12 -12 3 3 0 11 -7 18 -10 9 -11 8 -5 -6z"/>
<path d="M655 4500 c-4 -45 -5 -83 -2 -86 2 -3 8 32 11 77 4 44 5 83 3 85 -3
3 -8 -31 -12 -76z"/>
<path d="M3345 4565 c17 -8 37 -14 45 -14 8 0 -1 7 -20 14 -46 18 -64 17 -25
0z"/>
<path d="M3560 4572 c8 -5 26 -13 40 -16 17 -5 20 -4 10 2 -8 5 -26 13 -40 16
-17 5 -20 4 -10 -2z"/>
<path d="M4610 4489 c-16 -121 -8 -124 11 -4 8 52 12 95 9 95 -4 0 -13 -41
-20 -91z"/>
<path d="M4670 4576 c0 -2 8 -10 18 -17 15 -13 16 -12 3 4 -13 16 -21 21 -21
13z"/>
<path d="M3425 4540 c27 -12 43 -12 25 0 -8 5 -22 9 -30 9 -10 0 -8 -3 5 -9z"/>
<path d="M3640 4540 c8 -5 20 -10 25 -10 6 0 3 5 -5 10 -8 5 -19 10 -25 10 -5
0 -3 -5 5 -10z"/>
<path d="M4940 4538 c0 -5 16 -8 35 -8 19 0 35 3 35 8 0 4 -16 7 -35 7 -19 0
-35 -3 -35 -7z"/>
<path d="M7810 4545 c0 -7 30 -13 34 -7 3 4 -4 9 -15 9 -10 1 -19 0 -19 -2z"/>
<path d="M7896 4485 c2 -38 7 -158 10 -265 4 -107 9 -197 12 -200 8 -8 -8 441
-18 490 -8 40 -8 37 -4 -25z"/>
<path d="M1832 3887 c-2 -726 -3 -712 59 -737 30 -13 139 -6 139 9 0 4 -22 3
-50 -3 -54 -11 -107 1 -103 22 2 7 -2 11 -8 9 -7 -1 -15 11 -20 26 -4 16 -8
302 -8 638 0 466 3 608 12 602 9 -5 9 -3 0 8 -6 8 -13 30 -16 49 -2 19 -5
-261 -5 -623z"/>
<path d="M3681 4526 c10 -9 129 -66 129 -61 0 5 -116 65 -126 65 -4 0 -5 -2
-3 -4z"/>
<path d="M5415 4520 c-3 -6 1 -7 9 -4 18 7 21 14 7 14 -6 0 -13 -4 -16 -10z"/>
<path d="M3510 4510 c8 -5 20 -10 25 -10 6 0 3 5 -5 10 -8 5 -19 10 -25 10 -5
0 -3 -5 5 -10z"/>
<path d="M3550 4500 c0 -5 10 -12 23 -15 12 -4 64 -25 115 -47 99 -41 132 -43
131 -5 l0 22 -9 -22 c-5 -13 -14 -23 -21 -23 -6 0 -62 22 -125 49 -63 27 -114
45 -114 41z"/>
<path d="M5835 4489 c-34 -21 -29 -25 10 -7 14 6 25 15 25 20 0 10 1 10 -35
-13z"/>
<path d="M1850 4486 c0 -2 7 -9 15 -16 13 -11 14 -10 9 4 -5 14 -24 23 -24 12z"/>
<path d="M1902 4474 c-7 -8 -8 -14 -3 -14 10 0 25 19 20 25 -2 1 -10 -3 -17
-11z"/>
<path d="M7783 4473 c-14 -5 -18 -83 -5 -83 5 0 6 14 4 32 -3 22 0 35 14 45
18 13 11 16 -13 6z"/>
<path d="M4748 4463 c6 -2 18 -2 25 0 6 3 1 5 -13 5 -14 0 -19 -2 -12 -5z"/>
<path d="M5700 4444 c-124 -40 -331 -73 -515 -83 -152 -8 -158 -9 -55 -8 215
0 444 35 605 91 90 32 63 31 -35 0z"/>
<path d="M5527 4449 c7 -7 15 -10 18 -7 3 3 -2 9 -12 12 -14 6 -15 5 -6 -5z"/>
<path d="M518 4396 c-1 -30 0 -52 4 -48 9 9 14 89 6 97 -3 4 -8 -18 -10 -49z"/>
<path d="M1908 4433 c7 -3 16 -2 19 1 4 3 -2 6 -13 5 -11 0 -14 -3 -6 -6z"/>
<path d="M4861 4424 c0 -11 3 -14 6 -6 3 7 2 16 -1 19 -3 4 -6 -2 -5 -13z"/>
<path d="M5490 4429 c0 -5 5 -7 10 -4 6 3 10 8 10 11 0 2 -4 4 -10 4 -5 0 -10
-5 -10 -11z"/>
<path d="M550 4420 c-9 -6 -10 -10 -3 -10 6 0 15 5 18 10 8 12 4 12 -15 0z"/>
<path d="M1875 4400 c-3 -5 -2 -10 4 -10 5 0 13 5 16 10 3 6 2 10 -4 10 -5 0
-13 -4 -16 -10z"/>
<path d="M5225 4390 c-3 -6 1 -7 9 -4 18 7 21 14 7 14 -6 0 -13 -4 -16 -10z"/>
<path d="M643 4335 c0 -33 2 -45 4 -27 2 18 2 45 0 60 -2 15 -4 0 -4 -33z"/>
<path d="M4730 4386 c0 -2 7 -7 16 -10 8 -3 12 -2 9 4 -6 10 -25 14 -25 6z"/>
<path d="M1868 4373 c7 -3 16 -2 19 1 4 3 -2 6 -13 5 -11 0 -14 -3 -6 -6z"/>
<path d="M4571 4226 c-13 -86 -21 -159 -18 -162 2 -3 12 48 21 113 10 65 21
125 25 133 4 8 5 28 1 44 -3 20 -13 -24 -29 -128z"/>
<path d="M7781 4333 c0 -29 3 -53 7 -53 4 0 6 17 4 38 -6 64 -10 69 -11 15z"/>
<path d="M4878 4353 c-17 -20 -40 -113 -28 -113 4 0 10 22 14 49 7 56 18 68
66 74 l35 4 -36 1 c-23 1 -41 -4 -51 -15z"/>
<path d="M512 4228 c1 -107 6 -95 10 30 2 39 0 72 -4 72 -5 0 -7 -46 -6 -102z"/>
<path d="M4666 4298 c3 -5 10 -6 15 -3 13 9 11 12 -6 12 -8 0 -12 -4 -9 -9z"/>
<path d="M1964 4115 c0 -104 2 -146 3 -92 2 54 2 139 0 190 -1 51 -3 7 -3 -98z"/>
<path d="M6264 4247 c-31 -22 -85 -81 -149 -165 -90 -117 -244 -315 -555 -712
-174 -223 -226 -293 -249 -338 -23 -45 -40 -165 -25 -175 5 -3 10 23 11 57 1
72 19 119 68 186 27 36 41 48 56 45 17 -3 19 -2 9 10 -10 12 -5 24 25 65 20
27 39 49 43 49 25 -4 52 3 47 11 -4 7 -13 7 -26 0 -13 -7 -19 -7 -19 0 0 5 3
10 8 10 4 0 18 16 31 35 13 19 28 32 34 28 5 -3 7 -1 4 5 -6 9 76 122 95 130
4 2 8 8 8 13 0 18 103 138 113 132 6 -3 7 -1 3 5 -9 15 122 184 136 176 7 -4
8 -2 4 5 -8 12 41 78 56 73 4 -1 7 2 6 7 -5 16 72 112 84 105 6 -4 8 -3 5 3
-8 13 41 85 53 78 6 -3 7 1 4 9 -3 9 -1 16 4 16 6 0 13 8 16 18 18 51 137 146
178 140 22 -3 23 -6 21 -79 -1 -41 -9 -102 -17 -136 -9 -33 -16 -67 -15 -74 2
-31 39 131 45 198 10 111 -22 132 -112 70z"/>
<path d="M7785 4239 c8 -43 11 -46 17 -14 3 14 -1 30 -9 37 -12 9 -13 6 -8
-23z"/>
<path d="M4200 4256 c0 -2 8 -10 18 -17 15 -13 16 -12 3 4 -13 16 -21 21 -21
13z"/>
<path d="M6308 4243 c7 -3 16 -2 19 1 4 3 -2 6 -13 5 -11 0 -14 -3 -6 -6z"/>
<path d="M2369 4218 l-12 -23 24 20 c13 11 26 21 28 22 2 2 -3 3 -12 3 -9 0
-22 -10 -28 -22z"/>
<path d="M2421 4226 c7 -8 108 -10 115 -3 4 4 -21 7 -56 7 -35 0 -61 -2 -59
-4z"/>
<path d="M4838 4200 c-3 -16 -1 -30 4 -30 4 0 8 14 8 30 0 17 -2 30 -4 30 -2
0 -6 -13 -8 -30z"/>
<path d="M6303 4212 c1 -12 6 -18 15 -15 7 3 10 9 5 12 -4 3 -11 10 -15 15 -4
4 -6 -1 -5 -12z"/>
<path d="M7846 4217 c3 -10 9 -15 12 -12 3 3 0 11 -7 18 -10 9 -11 8 -5 -6z"/>
<path d="M634 4120 c0 -58 1 -81 3 -52 2 28 2 76 0 105 -2 28 -3 5 -3 -53z"/>
<path d="M2563 4213 c9 -2 25 -2 35 0 9 3 1 5 -18 5 -19 0 -27 -2 -17 -5z"/>
<path d="M2633 4203 c9 -2 25 -2 35 0 9 3 1 5 -18 5 -19 0 -27 -2 -17 -5z"/>
<path d="M2690 4200 c0 -6 11 -10 25 -10 14 0 78 -9 141 -21 63 -11 120 -19
126 -17 6 2 -51 14 -128 27 -76 12 -145 24 -151 27 -7 2 -13 -1 -13 -6z"/>
<path d="M7793 4085 l1 -110 5 85 c5 73 9 85 23 84 10 -1 15 3 12 8 -3 5 -12
7 -19 4 -8 -3 -15 4 -18 17 -2 12 -4 -27 -4 -88z"/>
<path d="M550 4171 c0 -6 4 -13 10 -16 6 -3 7 1 4 9 -7 18 -14 21 -14 7z"/>
<path d="M2378 4168 c11 -11 132 -26 132 -16 0 4 -17 8 -38 8 -21 0 -42 3 -45
7 -4 3 -18 7 -32 8 -14 0 -21 -3 -17 -7z"/>
<path d="M7878 4153 c7 -3 16 -2 19 1 4 3 -2 6 -13 5 -11 0 -14 -3 -6 -6z"/>
<path d="M2538 4143 c12 -2 30 -2 40 0 9 3 -1 5 -23 4 -22 0 -30 -2 -17 -4z"/>
<path d="M2605 4140 c-4 -6 3 -10 14 -10 25 0 27 6 6 13 -8 4 -17 2 -20 -3z"/>
<path d="M3013 4144 c9 -3 17 -9 17 -12 0 -4 12 -7 28 -7 15 -1 43 -4 62 -8
28 -5 26 -3 -9 8 -25 8 -61 17 -80 19 -20 3 -28 3 -18 0z"/>
<path d="M4830 4143 c0 -6 -7 -48 -14 -94 -8 -46 -18 -106 -22 -134 -3 -27 -9
-52 -13 -55 -8 -6 -8 -79 0 -75 3 2 11 44 19 92 7 48 14 95 15 103 21 122 26
162 21 167 -3 4 -6 2 -6 -4z"/>
<path d="M2715 4120 c17 -4 44 -8 60 -8 25 0 24 2 -10 9 -51 10 -92 10 -50 -1z"/>
<path d="M510 4105 c0 -8 2 -15 4 -15 2 0 6 7 10 15 3 8 1 15 -4 15 -6 0 -10
-7 -10 -15z"/>
<path d="M580 4116 c0 -2 8 -10 18 -17 15 -13 16 -12 3 4 -13 16 -21 21 -21
13z"/>
<path d="M4646 4111 c-4 -5 3 -7 14 -4 23 6 26 13 6 13 -8 0 -17 -4 -20 -9z"/>
<path d="M1908 4098 c5 -5 16 -8 23 -6 8 3 3 7 -10 11 -17 4 -21 3 -13 -5z"/>
<path d="M2823 4103 c9 -2 23 -2 30 0 6 3 -1 5 -18 5 -16 0 -22 -2 -12 -5z"/>
<path d="M2870 4100 c0 -5 33 -13 73 -20 39 -6 89 -16 111 -21 21 -6 40 -8 43
-6 2 3 -22 11 -54 17 -32 7 -84 18 -115 25 -32 7 -58 9 -58 5z"/>
<path d="M3175 4100 c27 -12 43 -12 25 0 -8 5 -22 9 -30 9 -10 0 -8 -3 5 -9z"/>
<path d="M3220 4090 c0 -8 109 -34 116 -27 3 2 -22 11 -56 20 -33 8 -60 11
-60 7z"/>
<path d="M4240 4096 c0 -2 7 -9 15 -16 9 -7 15 -8 15 -2 0 5 -7 12 -15 16 -8
3 -15 4 -15 2z"/>
<path d="M3360 4050 c8 -5 22 -9 30 -9 10 0 8 3 -5 9 -27 12 -43 12 -25 0z"/>
<path d="M3130 4040 c14 -4 34 -8 45 -8 l20 -1 -20 9 c-11 5 -31 8 -45 8 l-25
0 25 -8z"/>
<path d="M4515 3863 c-15 -104 -29 -197 -31 -208 -8 -50 -57 -366 -80 -518
-14 -92 -24 -173 -22 -178 3 -9 34 175 65 380 2 18 6 43 9 54 2 11 11 72 20
136 9 64 20 118 23 121 3 3 7 32 9 65 1 33 7 62 12 63 6 2 8 8 5 13 -7 10 12
156 21 171 9 14 11 88 3 88 -3 0 -18 -84 -34 -187z"/>
<path d="M3455 4020 c22 -10 48 -19 57 -19 22 -1 32 -18 16 -25 -7 -3 -1 -3
13 0 14 3 43 -2 64 -10 42 -18 59 -21 33 -5 -21 12 -206 79 -216 78 -4 0 11
-9 33 -19z"/>
<path d="M6110 4030 c-9 -6 -10 -10 -3 -10 6 0 15 5 18 10 8 12 4 12 -15 0z"/>
<path d="M3215 4020 c11 -5 27 -9 35 -9 13 -1 13 0 0 9 -8 5 -24 9 -35 9 l-20
0 20 -9z"/>
<path d="M6265 4020 c-3 -6 1 -7 9 -4 18 7 21 14 7 14 -6 0 -13 -4 -16 -10z"/>
<path d="M515 3860 c5 -144 13 -224 40 -405 9 -55 56 -269 61 -274 8 -8 4 34
-7 73 -16 59 -46 213 -54 281 -2 16 -8 66 -14 110 -6 44 -11 89 -11 100 0 63
-12 262 -16 270 -2 6 -2 -64 1 -155z"/>
<path d="M1906 4008 c3 -5 10 -6 15 -3 13 9 11 12 -6 12 -8 0 -12 -4 -9 -9z"/>
<path d="M4264 4005 c-10 -8 -14 -15 -8 -15 6 0 17 7 24 15 16 19 9 19 -16 0z"/>
<path d="M622 3995 c-7 -8 -8 -15 -3 -15 5 0 12 -10 14 -22 3 -14 5 -9 6 15 1
42 1 42 -17 22z"/>
<path d="M3300 3995 c46 -18 64 -17 25 0 -16 8 -37 14 -45 14 -8 0 1 -7 20
-14z"/>
<path d="M3456 3992 c-3 -5 1 -9 9 -9 8 0 12 4 9 9 -3 4 -7 8 -9 8 -2 0 -6 -4
-9 -8z"/>
<path d="M6250 3996 c0 -2 13 -6 29 -8 17 -2 28 -1 25 4 -5 8 -54 12 -54 4z"/>
<path d="M3365 3980 c3 -5 8 -10 11 -10 2 0 4 5 4 10 0 6 -5 10 -11 10 -5 0
-7 -4 -4 -10z"/>
<path d="M3415 3959 c147 -55 262 -102 314 -129 68 -34 91 -30 91 16 0 26 -34
54 -105 84 -75 32 -67 22 15 -18 58 -29 76 -43 78 -61 6 -39 -11 -44 -62 -17
-58 31 -291 123 -331 130 l-30 6 30 -11z"/>
<path d="M7911 3925 c-3 -85 -12 -209 -16 -222 -3 -7 0 -13 4 -13 10 0 25 210
18 255 -3 21 -5 15 -6 -20z"/>
<path d="M6322 3940 c0 -14 2 -19 5 -12 2 6 2 18 0 25 -3 6 -5 1 -5 -13z"/>
<path d="M6290 3940 c-9 -6 -10 -10 -3 -10 6 0 15 5 18 10 8 12 4 12 -15 0z"/>
<path d="M7783 3928 c-2 -18 0 -20 7 -8 12 18 13 30 2 30 -4 0 -9 -10 -9 -22z"/>
<path d="M4675 3930 c-3 -5 -1 -10 4 -10 6 0 11 5 11 10 0 6 -2 10 -4 10 -3 0
-8 -4 -11 -10z"/>
<path d="M580 3926 c0 -2 7 -7 16 -10 8 -3 12 -2 9 4 -6 10 -25 14 -25 6z"/>
<path d="M636 3903 c10 -40 15 -42 12 -5 -1 18 -6 32 -10 32 -5 0 -5 -12 -2
-27z"/>
<path d="M2 1963 l-2 -1963 2013 1 c1106 1 1965 5 1907 10 -890 66 -1700 385
-2400 943 -165 131 -489 457 -624 626 -529 663 -836 1455 -889 2295 -2 28 -4
-833 -5 -1912z"/>
<path d="M1964 3725 c0 -110 2 -156 3 -103 2 53 2 143 0 200 -1 57 -3 13 -3
-97z"/>
<path d="M4195 3900 c3 -5 8 -10 11 -10 2 0 4 5 4 10 0 6 -5 10 -11 10 -5 0
-7 -4 -4 -10z"/>
<path d="M6301 3855 c-7 -30 -17 -53 -22 -50 -5 3 -6 -1 -3 -10 4 -8 1 -37 -6
-63 -6 -26 -13 -54 -15 -62 -2 -8 -13 -53 -25 -99 -11 -46 -19 -88 -18 -93 2
-6 28 87 57 206 30 119 51 219 49 221 -3 3 -10 -20 -17 -50z"/>
<path d="M8440 3860 c0 -80 -29 -323 -56 -470 -121 -658 -405 -1278 -830
-1810 -135 -169 -459 -495 -624 -626 -700 -558 -1510 -877 -2400 -943 -58 -5
801 -9 1908 -10 l2012 -1 0 1955 c0 1075 -2 1955 -5 1955 -3 0 -5 -23 -5 -50z"/>
<path d="M7783 3845 c0 -33 2 -45 4 -27 2 18 2 45 0 60 -2 15 -4 0 -4 -33z"/>
<path d="M7875 3880 c3 -5 8 -10 11 -10 2 0 4 5 4 10 0 6 -5 10 -11 10 -5 0
-7 -4 -4 -10z"/>
<path d="M6230 3865 c0 -7 30 -13 34 -7 3 4 -4 9 -15 9 -10 1 -19 0 -19 -2z"/>
<path d="M640 3834 c0 -48 30 -287 37 -293 3 -3 3 12 0 34 -4 22 -11 94 -18
160 -11 117 -19 158 -19 99z"/>
<path d="M560 3830 c-9 -6 -10 -10 -3 -10 6 0 15 5 18 10 8 12 4 12 -15 0z"/>
<path d="M5989 3823 c-13 -17 -13 -17 6 -3 11 8 22 16 24 17 2 2 0 3 -6 3 -6
0 -17 -8 -24 -17z"/>
<path d="M6110 3830 c-8 -5 -10 -10 -5 -10 6 0 17 5 25 10 8 5 11 10 5 10 -5
0 -17 -5 -25 -10z"/>
<path d="M6068 3823 c7 -3 16 -2 19 1 4 3 -2 6 -13 5 -11 0 -14 -3 -6 -6z"/>
<path d="M5936 3794 c-11 -8 -16 -14 -10 -14 13 0 39 18 34 24 -3 2 -14 -2
-24 -10z"/>
<path d="M6092 3764 c-13 -20 -27 -32 -34 -28 -6 4 -8 3 -5 -3 7 -12 -72 -119
-85 -115 -5 1 -7 -2 -4 -6 7 -12 -120 -173 -129 -164 -5 4 -6 3 -3 -3 9 -16
-95 -142 -112 -138 -11 4 -12 2 -2 -4 10 -8 9 -14 -5 -30 -10 -12 -44 -55 -77
-97 -32 -42 -62 -73 -67 -70 -5 3 -6 -3 -2 -12 5 -13 2 -16 -9 -12 -10 4 -15
1 -14 -10 0 -9 -5 -16 -12 -14 -8 1 -11 -2 -7 -8 3 -5 -13 -36 -35 -68 -36
-51 -43 -69 -51 -138 -5 -43 -11 -96 -14 -116 -2 -21 0 -38 5 -38 6 0 9 3 8 8
-7 26 17 194 32 230 11 23 120 172 242 330 301 386 411 532 407 537 -2 2 -14
-12 -27 -31z"/>
<path d="M6137 3783 c-8 -14 -19 -68 -13 -62 8 8 26 69 21 69 -2 0 -6 -3 -8
-7z"/>
<path d="M7876 3773 c-6 -14 -5 -15 5 -6 7 7 10 15 7 18 -3 3 -9 -2 -12 -12z"/>
<path d="M4749 3621 c-19 -124 -25 -148 -38 -144 -13 4 -13 3 -3 -5 10 -7 12
-24 7 -68 -15 -119 4 -44 30 121 37 231 38 245 32 245 -3 0 -15 -67 -28 -149z"/>
<path d="M7771 3718 c1 -55 5 -50 11 15 2 20 0 37 -4 37 -4 0 -7 -24 -7 -52z"/>
<path d="M5975 3740 c-3 -5 -1 -10 4 -10 6 0 11 5 11 10 0 6 -2 10 -4 10 -3 0
-8 -4 -11 -10z"/>
<path d="M620 3720 c0 -5 5 -10 11 -10 5 0 7 5 4 10 -3 6 -8 10 -11 10 -2 0
-4 -4 -4 -10z"/>
<path d="M4704 3713 c3 -20 21 -28 31 -14 4 7 0 8 -11 4 -11 -4 -15 -3 -10 5
3 6 2 13 -3 16 -5 4 -8 -2 -7 -11z"/>
<path d="M7797 3709 c7 -7 15 -10 18 -7 3 3 -2 9 -12 12 -14 6 -15 5 -6 -5z"/>
<path d="M5938 3703 c7 -3 16 -2 19 1 4 3 -2 6 -13 5 -11 0 -14 -3 -6 -6z"/>
<path d="M7835 3700 c-3 -6 1 -7 9 -4 18 7 21 14 7 14 -6 0 -13 -4 -16 -10z"/>
<path d="M6101 3656 c-13 -54 -13 -56 -3 -56 5 0 9 6 9 13 0 6 3 29 7 50 10
51 1 47 -13 -7z"/>
<path d="M4225 3680 c3 -5 8 -10 11 -10 2 0 4 5 4 10 0 6 -5 10 -11 10 -5 0
-7 -4 -4 -10z"/>
<path d="M5885 3670 c3 -5 8 -10 11 -10 2 0 4 5 4 10 0 6 -5 10 -11 10 -5 0
-7 -4 -4 -10z"/>
<path d="M7890 3652 c0 -15 -6 -34 -12 -41 -10 -11 -10 -12 -1 -7 9 5 11 -1 8
-21 -3 -15 -16 -91 -29 -168 -39 -219 -38 -213 -27 -188 6 12 24 105 40 205
37 229 39 248 29 248 -4 0 -8 -13 -8 -28z"/>
<path d="M7763 3648 c0 -7 -8 -64 -17 -127 -9 -62 -15 -115 -13 -118 5 -4 13
33 22 102 3 22 8 58 11 80 3 22 8 48 10 58 3 9 1 17 -4 17 -5 0 -9 -6 -9 -12z"/>
<path d="M1861 3624 c0 -11 3 -14 6 -6 3 7 2 16 -1 19 -3 4 -6 -2 -5 -13z"/>
<path d="M4676 3603 c-6 -14 -5 -15 5 -6 7 7 10 15 7 18 -3 3 -9 -2 -12 -12z"/>
<path d="M5855 3610 c3 -5 8 -10 11 -10 2 0 4 5 4 10 0 6 -5 10 -11 10 -5 0
-7 -4 -4 -10z"/>
<path d="M6120 3610 c0 -5 5 -10 11 -10 5 0 7 5 4 10 -3 6 -8 10 -11 10 -2 0
-4 -4 -4 -10z"/>
<path d="M6041 3433 c-24 -87 -49 -176 -56 -198 -7 -22 -15 -56 -19 -75 -6
-34 -6 -34 8 5 8 22 17 53 20 68 4 15 11 25 16 22 5 -3 7 1 4 9 -7 18 46 216
58 216 5 0 6 4 3 10 -3 5 -1 28 5 51 6 22 9 43 7 45 -2 2 -23 -67 -46 -153z"/>
<path d="M5826 3561 c-4 -5 3 -7 14 -4 23 6 26 13 6 13 -8 0 -17 -4 -20 -9z"/>
<path d="M2078 3547 c-54 -5 -98 -13 -98 -17 0 -3 28 -2 63 3 34 6 179 11 322
11 143 1 233 4 200 7 -89 10 -376 7 -487 -4z"/>
<path d="M2637 3538 c2 -5 26 -8 54 -8 27 0 49 -3 49 -7 0 -5 20 -8 45 -8 79
0 48 12 -54 21 -55 5 -97 6 -94 2z"/>
<path d="M4576 3542 c-2 -4 4 -8 14 -8 10 0 16 4 14 8 -3 4 -9 8 -14 8 -5 0
-11 -4 -14 -8z"/>
<path d="M2158 3523 c7 -3 16 -2 19 1 4 3 -2 6 -13 5 -11 0 -14 -3 -6 -6z"/>
<path d="M5775 3514 c22 -16 35 -18 35 -5 0 5 -12 11 -27 14 -26 5 -26 4 -8
-9z"/>
<path d="M682 3500 c0 -28 25 -133 26 -110 1 8 -5 42 -12 75 -8 33 -14 49 -14
35z"/>
<path d="M2226 3503 c-6 -14 -5 -15 5 -6 7 7 10 15 7 18 -3 3 -9 -2 -12 -12z"/>
<path d="M2595 3510 c4 -6 11 -8 16 -5 14 9 11 15 -7 15 -8 0 -12 -5 -9 -10z"/>
<path d="M2965 3495 c175 -34 461 -126 450 -146 -4 -5 0 -6 8 -4 13 6 146 -46
179 -70 10 -6 15 -15 11 -19 -4 -4 -1 -4 8 -1 8 3 51 -16 99 -45 107 -65 120
-72 120 -66 0 3 -54 37 -119 76 -246 145 -605 273 -826 294 -33 3 -1 -5 70
-19z"/>
<path d="M1940 3501 c0 -6 4 -13 10 -16 6 -3 7 1 4 9 -7 18 -14 21 -14 7z"/>
<path d="M2058 3493 c7 -3 16 -2 19 1 4 3 -2 6 -13 5 -11 0 -14 -3 -6 -6z"/>
<path d="M2490 3491 c0 -5 9 -7 20 -4 11 3 20 7 20 9 0 2 -9 4 -20 4 -11 0
-20 -4 -20 -9z"/>
<path d="M5690 3496 c0 -2 7 -7 16 -10 8 -3 12 -2 9 4 -6 10 -25 14 -25 6z"/>
<path d="M2435 3470 c-3 -6 1 -7 9 -4 18 7 21 14 7 14 -6 0 -13 -4 -16 -10z"/>
<path d="M2557 3465 c3 -8 9 -12 14 -9 12 7 11 11 -5 17 -10 4 -13 1 -9 -8z"/>
<path d="M1896 3458 c3 -5 10 -6 15 -3 13 9 11 12 -6 12 -8 0 -12 -4 -9 -9z"/>
<path d="M2323 3463 c4 -3 -1 -12 -11 -20 -15 -13 -15 -13 6 -3 23 11 30 30
10 30 -6 0 -8 -3 -5 -7z"/>
<path d="M2145 3450 c-3 -6 1 -7 9 -4 18 7 21 14 7 14 -6 0 -13 -4 -16 -10z"/>
<path d="M5765 3440 c10 -11 20 -20 23 -20 3 0 -3 9 -13 20 -10 11 -20 20 -23
20 -3 0 3 -9 13 -20z"/>
<path d="M6115 3450 c-3 -5 -1 -10 4 -10 6 0 11 5 11 10 0 6 -2 10 -4 10 -3 0
-8 -4 -11 -10z"/>
<path d="M6196 3426 c-4 -21 -18 -77 -32 -124 -14 -46 -23 -90 -21 -95 2 -6
18 44 36 112 18 67 30 128 28 134 -2 7 -7 -5 -11 -27z"/>
<path d="M617 3439 c7 -7 15 -10 18 -7 3 3 -2 9 -12 12 -14 6 -15 5 -6 -5z"/>
<path d="M2186 3418 c-54 -4 -101 -10 -104 -13 -6 -6 229 5 236 10 10 8 -47
10 -132 3z"/>
<path d="M2360 3420 c0 -5 4 -10 9 -10 6 0 13 5 16 10 3 6 -1 10 -9 10 -9 0
-16 -4 -16 -10z"/>
<path d="M2445 3423 c6 -6 69 -13 140 -16 72 -3 119 -2 105 2 -14 4 -72 9
-130 10 -57 1 -109 5 -115 8 -7 4 -7 3 0 -4z"/>
<path d="M5735 3420 c-16 -7 -17 -9 -3 -9 9 -1 20 4 23 9 7 11 7 11 -20 0z"/>
<path d="M6127 3419 c7 -7 15 -10 18 -7 3 3 -2 9 -12 12 -14 6 -15 5 -6 -5z"/>
<path d="M4590 3410 c0 -5 5 -10 11 -10 5 0 7 5 4 10 -3 6 -8 10 -11 10 -2 0
-4 -4 -4 -10z"/>
<path d="M2727 3400 c10 -8 173 -33 179 -27 3 2 -13 7 -36 11 -22 3 -40 12
-40 19 0 9 -2 9 -8 1 -5 -8 -23 -9 -55 -4 -26 4 -44 4 -40 0z"/>
<path d="M1983 3387 c-3 -4 12 -5 34 -1 51 9 56 16 9 12 -20 -1 -40 -6 -43
-11z"/>
<path d="M5706 3373 c-6 -14 -5 -15 5 -6 7 7 10 15 7 18 -3 3 -9 -2 -12 -12z"/>
<path d="M7721 3375 c-1 -11 -4 -31 -6 -45 l-6 -25 11 25 c6 13 9 33 7 45 -4
19 -4 19 -6 0z"/>
<path d="M1958 3343 c5 -59 10 -63 11 -10 1 26 -3 47 -7 47 -4 0 -6 -17 -4
-37z"/>
<path d="M713 3325 c6 -25 12 -43 14 -41 6 6 -9 86 -17 86 -4 0 -3 -20 3 -45z"/>
<path d="M2945 3360 c17 -4 39 -8 50 -8 16 0 15 2 -5 8 -14 4 -36 8 -50 8 -22
0 -22 -1 5 -8z"/>
<path d="M5646 3358 c3 -4 12 -8 20 -8 8 0 14 4 14 8 0 4 -9 8 -19 8 -11 0
-17 -4 -15 -8z"/>
<path d="M2285 3342 c-70 -3 -100 -14 -70 -26 9 -3 13 -2 10 4 -6 9 18 11 163
12 18 0 30 3 27 6 -6 7 -42 8 -130 4z"/>
<path d="M2430 3340 c0 -6 7 -10 15 -10 8 0 15 2 15 4 0 2 -7 6 -15 10 -8 3
-15 1 -15 -4z"/>
<path d="M3035 3342 c31 -14 83 -24 65 -13 -8 5 -31 11 -50 15 -24 4 -28 3
-15 -2z"/>
<path d="M4642 3341 c-11 -7 -10 -9 3 -14 9 -4 14 -3 10 2 -3 5 1 12 7 14 7 3
9 6 3 6 -5 0 -16 -3 -23 -8z"/>
<path d="M2490 3329 c0 -5 5 -7 10 -4 6 3 10 8 10 11 0 2 -4 4 -10 4 -5 0 -10
-5 -10 -11z"/>
<path d="M2531 3336 c7 -7 159 -10 166 -3 3 4 -33 7 -82 7 -49 0 -86 -2 -84
-4z"/>
<path d="M4698 3315 c-3 -14 -1 -25 3 -25 5 0 9 11 9 25 0 14 -2 25 -4 25 -2
0 -6 -11 -8 -25z"/>
<path d="M7800 3331 c0 -6 4 -13 10 -16 6 -3 7 1 4 9 -7 18 -14 21 -14 7z"/>
<path d="M2073 3311 c-45 -9 -86 -20 -90 -25 -4 -4 4 -5 17 -2 14 3 61 13 105
22 44 8 82 18 84 20 8 8 -34 2 -116 -15z"/>
<path d="M2733 3323 c9 -2 23 -2 30 0 6 3 -1 5 -18 5 -16 0 -22 -2 -12 -5z"/>
<path d="M2833 3313 c15 -2 37 -2 50 0 12 2 0 4 -28 4 -27 0 -38 -2 -22 -4z"/>
<path d="M3121 3316 c2 -2 18 -6 34 -10 22 -5 26 -4 15 4 -14 9 -59 15 -49 6z"/>
<path d="M5666 3307 c3 -10 9 -15 12 -12 3 3 0 11 -7 18 -10 9 -11 8 -5 -6z"/>
<path d="M6138 3313 c7 -3 16 -2 19 1 4 3 -2 6 -13 5 -11 0 -14 -3 -6 -6z"/>
<path d="M2910 3306 c0 -2 11 -6 25 -8 14 -3 25 -1 25 3 0 5 -11 9 -25 9 -14
0 -25 -2 -25 -4z"/>
<path d="M4660 3301 c0 -6 4 -13 10 -16 6 -3 7 1 4 9 -7 18 -14 21 -14 7z"/>
<path d="M5598 3303 c6 -2 18 -2 25 0 6 3 1 5 -13 5 -14 0 -19 -2 -12 -5z"/>
<path d="M2225 3290 c-3 -5 -1 -10 4 -10 6 0 11 5 11 10 0 6 -2 10 -4 10 -3 0
-8 -4 -11 -10z"/>
<path d="M2978 3293 c6 -2 18 -2 25 0 6 3 1 5 -13 5 -14 0 -19 -2 -12 -5z"/>
<path d="M7699 3273 c-5 -14 -8 -30 -6 -36 1 -5 8 7 14 27 13 42 7 49 -8 9z"/>
<path d="M2400 3279 c0 -5 5 -7 10 -4 6 3 10 8 10 11 0 2 -4 4 -10 4 -5 0 -10
-5 -10 -11z"/>
<path d="M3020 3288 c7 -8 171 -40 176 -35 2 2 -20 9 -48 15 -81 17 -134 25
-128 20z"/>
<path d="M3235 3280 c27 -12 43 -12 25 0 -8 5 -22 9 -30 9 -10 0 -8 -3 5 -9z"/>
<path d="M2487 3261 c-4 -17 -3 -21 5 -13 5 5 8 16 6 23 -3 8 -7 3 -11 -10z"/>
<path d="M3286 3272 c-6 -10 81 -48 90 -39 3 3 -12 11 -33 17 -21 7 -41 17
-44 23 -4 6 -9 6 -13 -1z"/>
<path d="M4684 3215 c-6 -36 -7 -62 -3 -58 8 9 24 123 17 123 -3 0 -9 -29 -14
-65z"/>
<path d="M736 3235 c3 -22 10 -47 15 -55 11 -18 0 46 -13 75 -5 13 -6 7 -2
-20z"/>
<path d="M4590 3261 c8 -5 29 -11 45 -15 l30 -6 -25 15 c-14 8 -34 14 -45 14
-16 0 -17 -1 -5 -8z"/>
<path d="M3230 3241 c37 -12 109 -22 85 -12 -11 5 -40 11 -65 15 -30 4 -36 3
-20 -3z"/>
<path d="M2900 3219 c0 -5 5 -7 10 -4 6 3 10 8 10 11 0 2 -4 4 -10 4 -5 0 -10
-5 -10 -11z"/>
<path d="M5627 3219 c7 -7 15 -10 18 -7 3 3 -2 9 -12 12 -14 6 -15 5 -6 -5z"/>
<path d="M2449 3209 c-14 -4 7 -7 52 -8 42 -1 112 -3 155 -6 l79 -4 -65 9
c-93 13 -193 17 -221 9z"/>
<path d="M6030 3216 c0 -2 7 -7 16 -10 8 -3 12 -2 9 4 -6 10 -25 14 -25 6z"/>
<path d="M7725 3211 c-3 -5 -2 -12 3 -15 5 -3 9 1 9 9 0 17 -3 19 -12 6z"/>
<path d="M2220 3200 c-19 -5 17 -6 80 -3 63 3 117 7 119 9 8 7 -164 1 -199 -6z"/>
<path d="M3368 3203 c7 -3 16 -2 19 1 4 3 -2 6 -13 5 -11 0 -14 -3 -6 -6z"/>
<path d="M4271 3194 c0 -11 3 -14 6 -6 3 7 2 16 -1 19 -3 4 -6 -2 -5 -13z"/>
<path d="M7669 3158 c-6 -29 -23 -86 -36 -127 -13 -41 -21 -76 -19 -79 5 -4
60 171 71 226 11 53 -2 36 -16 -20z"/>
<path d="M2117 3188 c2 -5 17 -8 34 -8 16 0 29 3 29 8 0 4 -15 7 -34 7 -19 0
-32 -3 -29 -7z"/>
<path d="M2740 3188 c0 -5 18 -8 40 -8 22 0 40 2 40 4 0 2 -18 6 -40 8 -22 2
-40 0 -40 -4z"/>
<path d="M3628 3193 c7 -3 16 -2 19 1 4 3 -2 6 -13 5 -11 0 -14 -3 -6 -6z"/>
<path d="M7800 3150 c-7 -28 -10 -53 -7 -56 2 -3 10 18 17 46 7 28 10 53 7 56
-2 3 -10 -18 -17 -46z"/>
<path d="M3580 3181 c0 -6 4 -13 10 -16 6 -3 7 1 4 9 -7 18 -14 21 -14 7z"/>
<path d="M6131 3174 c0 -11 3 -14 6 -6 3 7 2 16 -1 19 -3 4 -6 -2 -5 -13z"/>
<path d="M2055 3170 c-25 -11 1 -11 35 0 20 6 21 8 5 8 -11 0 -29 -3 -40 -8z"/>
<path d="M2955 3155 c112 -22 285 -62 350 -82 11 -3 16 -2 12 3 -9 9 -23 13
-217 58 -144 33 -153 35 -220 41 -30 3 4 -6 75 -20z"/>
<path d="M7707 3169 c7 -7 15 -10 18 -7 3 3 -2 9 -12 12 -14 6 -15 5 -6 -5z"/>
<path d="M621 3166 c-3 -27 107 -372 115 -363 2 2 -7 36 -21 77 -13 40 -22 76
-19 81 3 5 1 9 -4 9 -5 0 -17 28 -27 63 -25 87 -43 144 -44 133z"/>
<path d="M4471 3152 c-7 -13 -6 -19 2 -19 7 0 13 9 13 19 0 10 -1 18 -3 18 -1
0 -7 -8 -12 -18z"/>
<path d="M4517 3156 c-4 -10 -1 -13 8 -9 8 3 12 9 9 14 -7 12 -11 11 -17 -5z"/>
<path d="M762 3145 c0 -11 3 -29 8 -40 11 -25 11 1 0 35 -6 20 -8 21 -8 5z"/>
<path d="M3485 3149 c-4 -6 -5 -12 -2 -15 2 -3 7 2 10 11 7 17 1 20 -8 4z"/>
<path d="M651 3134 c0 -11 3 -14 6 -6 3 7 2 16 -1 19 -3 4 -6 -2 -5 -13z"/>
<path d="M6112 3113 c-26 -87 -52 -196 -48 -200 3 -3 10 15 16 38 6 24 20 77
31 118 20 76 21 110 1 44z"/>
<path d="M3350 3136 c0 -2 7 -7 16 -10 8 -3 12 -2 9 4 -6 10 -25 14 -25 6z"/>
<path d="M3850 3137 c0 -2 20 -18 45 -36 25 -18 43 -37 40 -42 -3 -5 0 -7 7
-4 17 6 174 -129 170 -146 -2 -8 0 -11 4 -7 4 4 14 2 23 -4 9 -7 -6 12 -34 41
-55 58 -255 213 -255 198z"/>
<path d="M4560 3129 c0 -5 5 -7 10 -4 6 3 10 8 10 11 0 2 -4 4 -10 4 -5 0 -10
-5 -10 -11z"/>
<path d="M4665 3095 c-3 -26 -4 -49 -2 -51 3 -3 8 16 12 41 3 26 4 49 2 51 -3
3 -8 -16 -12 -41z"/>
<path d="M5911 2973 c-42 -142 -70 -214 -95 -238 -6 -6 -46 -35 -88 -63 -83
-56 -251 -192 -264 -214 -4 -7 4 -4 17 8 104 91 212 173 220 169 5 -4 9 -2 9
4 0 6 27 29 61 51 33 23 63 48 66 56 3 8 10 11 16 7 6 -3 7 -1 3 5 -4 7 0 24
8 39 18 34 98 301 94 314 -2 5 -23 -57 -47 -138z"/>
<path d="M3358 3088 c5 -5 16 -8 23 -6 8 3 3 7 -10 11 -17 4 -21 3 -13 -5z"/>
<path d="M780 3074 c0 -6 9 -39 21 -75 11 -35 23 -70 25 -78 2 -8 7 -12 10 -9
2 3 -7 41 -22 84 -26 78 -34 97 -34 78z"/>
<path d="M3566 3063 c-6 -14 -5 -15 5 -6 7 7 10 15 7 18 -3 3 -9 -2 -12 -12z"/>
<path d="M5368 3073 c7 -3 16 -2 19 1 4 3 -2 6 -13 5 -11 0 -14 -3 -6 -6z"/>
<path d="M5448 3073 c6 -2 12 -9 12 -14 0 -4 -6 -6 -14 -3 -8 3 -16 1 -20 -4
-3 -5 5 -8 17 -7 27 2 37 35 10 34 -10 0 -13 -3 -5 -6z"/>
<path d="M7761 3004 c-13 -43 -42 -131 -66 -194 -56 -150 -60 -165 -31 -105
30 59 128 354 123 368 -2 6 -13 -25 -26 -69z"/>
<path d="M3414 3039 c49 -16 92 -27 94 -24 5 5 3 6 -92 34 -102 31 -104 24 -2
-10z"/>
<path d="M4246 3042 c-3 -5 1 -9 9 -9 8 0 12 4 9 9 -3 4 -7 8 -9 8 -2 0 -6 -4
-9 -8z"/>
<path d="M5385 3040 c-3 -6 1 -7 9 -4 18 7 21 14 7 14 -6 0 -13 -4 -16 -10z"/>
<path d="M3600 3020 c-9 -6 -10 -10 -3 -10 6 0 15 5 18 10 8 12 4 12 -15 0z"/>
<path d="M4644 2969 c-6 -33 -7 -62 -3 -64 7 -5 23 114 16 121 -2 2 -8 -24
-13 -57z"/>
<path d="M4260 3009 c0 -5 5 -7 10 -4 6 3 10 8 10 11 0 2 -4 4 -10 4 -5 0 -10
-5 -10 -11z"/>
<path d="M4580 3011 c0 -6 4 -13 10 -16 6 -3 7 1 4 9 -7 18 -14 21 -14 7z"/>
<path d="M5400 3016 c0 -2 8 -10 18 -17 15 -13 16 -12 3 4 -13 16 -21 21 -21
13z"/>
<path d="M5978 3013 c7 -3 16 -2 19 1 4 3 -2 6 -13 5 -11 0 -14 -3 -6 -6z"/>
<path d="M3530 3000 c8 -5 20 -10 25 -10 6 0 3 5 -5 10 -8 5 -19 10 -25 10 -5
0 -3 -5 5 -10z"/>
<path d="M5340 3001 c0 -6 4 -13 10 -16 6 -3 7 1 4 9 -7 18 -14 21 -14 7z"/>
<path d="M734 2969 c0 -10 4 -19 8 -19 4 0 8 6 8 14 0 8 -4 17 -8 20 -4 2 -8
-4 -8 -15z"/>
<path d="M3580 2980 c20 -13 33 -13 25 0 -3 6 -14 10 -23 10 -15 0 -15 -2 -2
-10z"/>
<path d="M5310 2969 c0 -5 5 -7 10 -4 6 3 10 8 10 11 0 2 -4 4 -10 4 -5 0 -10
-5 -10 -11z"/>
<path d="M3621 2967 c10 -9 239 -115 239 -112 0 3 -13 11 -30 20 -21 11 -28
20 -24 33 5 13 4 14 -4 3 -8 -11 -24 -7 -90 23 -69 31 -105 44 -91 33z"/>
<path d="M3903 2963 c9 -2 14 -9 11 -15 -4 -7 -2 -8 5 -4 15 10 4 26 -17 25
-15 -1 -15 -2 1 -6z"/>
<path d="M765 2940 c-3 -6 1 -7 9 -4 18 7 21 14 7 14 -6 0 -13 -4 -16 -10z"/>
<path d="M7553 2807 c-68 -181 -67 -176 -49 -147 8 14 27 58 42 98 23 63 29
71 43 60 14 -12 14 -11 3 4 -12 15 -11 24 3 63 10 25 16 47 13 50 -2 3 -27
-55 -55 -128z"/>
<path d="M7646 2913 c-6 -14 -5 -15 5 -6 7 7 10 15 7 18 -3 3 -9 -2 -12 -12z"/>
<path d="M840 2894 c0 -6 11 -39 25 -73 13 -35 22 -67 20 -71 -3 -4 2 -11 11
-14 12 -5 15 -2 9 11 -4 10 -18 47 -32 83 -25 66 -33 81 -33 64z"/>
<path d="M6051 2884 c0 -11 3 -14 6 -6 3 7 2 16 -1 19 -3 4 -6 -2 -5 -13z"/>
<path d="M4623 2860 c-7 -19 -17 -29 -23 -25 -6 3 -9 1 -8 -6 4 -15 -56 -57
-140 -100 -35 -18 -66 -37 -69 -42 -7 -11 20 2 127 65 82 48 137 103 128 128
-2 6 -9 -3 -15 -20z"/>
<path d="M7627 2879 c7 -7 15 -10 18 -7 3 3 -2 9 -12 12 -14 6 -15 5 -6 -5z"/>
<path d="M4060 2876 c0 -2 7 -7 16 -10 8 -3 12 -2 9 4 -6 10 -25 14 -25 6z"/>
<path d="M5320 2876 c0 -2 7 -7 16 -10 8 -3 12 -2 9 4 -6 10 -25 14 -25 6z"/>
<path d="M4315 2860 c-3 -6 1 -7 9 -4 18 7 21 14 7 14 -6 0 -13 -4 -16 -10z"/>
<path d="M825 2840 c-4 -13 -12 -19 -21 -16 -8 3 -14 1 -14 -4 0 -18 29 -10
40 11 7 11 9 23 7 26 -3 2 -8 -5 -12 -17z"/>
<path d="M6041 2844 c0 -11 3 -14 6 -6 3 7 2 16 -1 19 -3 4 -6 -2 -5 -13z"/>
<path d="M3884 2837 c10 -7 66 -45 125 -86 58 -41 121 -85 140 -98 22 -15 48
-23 76 -23 44 0 131 25 141 41 3 5 -18 0 -46 -11 -77 -30 -128 -27 -181 13
-76 58 -255 177 -265 176 -5 0 -1 -6 10 -12z"/>
<path d="M4060 2846 c0 -2 7 -9 15 -16 13 -11 14 -10 9 4 -5 14 -24 23 -24 12z"/>
<path d="M5280 2779 c0 -33 -5 -114 -11 -180 -6 -65 -9 -124 -6 -131 3 -11 16
117 32 330 2 23 -1 42 -6 42 -5 0 -9 -27 -9 -61z"/>
<path d="M6021 2789 c-6 -18 -11 -39 -10 -48 1 -9 7 4 15 28 16 51 12 68 -5
20z"/>
<path d="M7620 2816 c0 -2 8 -10 18 -17 15 -13 16 -12 3 4 -13 16 -21 21 -21
13z"/>
<path d="M740 2784 c0 -15 64 -164 71 -164 4 0 -3 21 -16 48 -12 26 -28 64
-34 85 -11 32 -21 48 -21 31z"/>
<path d="M910 2715 c0 -5 5 -17 10 -25 5 -8 10 -10 10 -5 0 6 -5 17 -10 25 -5
8 -10 11 -10 5z"/>
<path d="M5993 2693 c-12 -34 -79 -103 -100 -103 -7 0 -13 -5 -13 -11 0 -13
41 11 78 45 29 25 55 73 49 89 -2 6 -8 -3 -14 -20z"/>
<path d="M5421 2620 c-1 -36 -4 -74 -6 -85 -7 -37 -9 -94 -3 -100 8 -8 21 171
16 215 -3 23 -6 13 -7 -30z"/>
<path d="M930 2656 c0 -9 5 -16 10 -16 6 0 10 4 10 9 0 6 -4 13 -10 16 -5 3
-10 -1 -10 -9z"/>
<path d="M7587 2550 c-54 -114 -89 -160 -121 -160 -56 0 -60 52 -11 157 19 42
33 78 31 80 -5 6 -55 -102 -72 -156 -12 -39 -12 -47 1 -68 23 -34 64 -30 102
10 30 31 131 223 122 232 -3 2 -26 -40 -52 -95z"/>
<path d="M950 2629 c-1 -13 71 -161 76 -156 3 3 -13 40 -35 83 -22 44 -40 76
-41 73z"/>
<path d="M824 2573 c4 -10 27 -55 52 -100 45 -83 91 -133 123 -133 40 0 66 70
42 109 -6 10 -8 0 -4 -27 10 -72 -35 -96 -86 -44 -33 33 -114 178 -107 191 3
5 -1 12 -10 15 -12 5 -15 2 -10 -11z"/>
<path d="M5754 2494 c-60 -41 -120 -87 -134 -101 -14 -14 2 -6 35 19 33 25 95
68 138 97 69 47 86 61 73 61 -2 0 -52 -34 -112 -76z"/>
<path d="M5728 2543 c7 -3 16 -2 19 1 4 3 -2 6 -13 5 -11 0 -14 -3 -6 -6z"/>
<path d="M5250 2436 c0 -7 -3 -29 -6 -47 -4 -19 -3 -31 1 -27 11 11 24 88 14
88 -5 0 -9 -6 -9 -14z"/>
<path d="M5485 2410 c-4 -6 -11 -7 -17 -4 -7 4 -8 2 -4 -4 7 -12 36 -5 36 9 0
12 -7 11 -15 -1z"/>
<path d="M6773 2378 c-28 -35 -83 -141 -78 -149 8 -12 42 -12 49 0 4 5 -3 7
-14 4 -21 -5 -25 3 -14 31 3 9 10 14 14 11 4 -3 7 3 6 13 0 9 4 16 11 15 7 -2
10 3 7 11 -7 19 39 71 55 62 7 -5 10 -15 7 -23 -3 -8 -1 -11 4 -8 6 4 18 -7
28 -24 9 -17 21 -31 25 -31 14 0 -60 95 -76 98 -7 2 -18 -3 -24 -10z"/>
<path d="M1584 2355 c-3 -8 -4 -20 -1 -27 3 -7 6 -3 6 10 1 15 7 22 22 22 13
0 18 -4 13 -12 -4 -6 -3 -8 3 -5 5 3 25 -9 42 -27 l33 -34 -15 -51 c-8 -28
-11 -51 -7 -51 7 0 30 76 30 99 0 17 -83 91 -102 91 -10 0 -21 -7 -24 -15z"/>
<path d="M5520 2316 c-67 -55 -143 -138 -218 -237 -54 -72 -72 -88 -119 -105
-30 -10 -33 -13 -14 -14 36 0 84 41 161 140 39 48 113 129 166 179 53 50 94
91 92 91 -2 0 -33 -24 -68 -54z"/>
<path d="M5420 2350 c-9 -6 -10 -10 -3 -10 6 0 15 5 18 10 8 12 4 12 -15 0z"/>
<path d="M5217 2287 c-10 -34 -35 -98 -56 -142 -47 -100 -54 -130 -40 -156 6
-11 13 -18 16 -16 2 3 0 15 -7 26 -9 18 -2 42 44 151 48 112 76 200 65 200 -2
0 -12 -28 -22 -63z"/>
<path d="M6780 2316 c0 -2 7 -7 16 -10 8 -3 12 -2 9 4 -6 10 -25 14 -25 6z"/>
<path d="M1570 2302 c0 -15 -441 -368 -486 -389 -33 -16 -35 -16 -63 5 -31 22
-55 21 -65 -4 -6 -15 38 -65 122 -138 48 -42 92 -60 92 -37 0 5 -9 7 -20 4
-14 -4 -36 11 -79 52 -33 32 -58 62 -54 68 3 5 2 7 -4 4 -12 -8 -56 36 -46 46
12 13 45 8 37 -5 -4 -7 -4 -10 0 -6 4 3 23 0 41 -8 18 -7 35 -10 37 -6 8 20
118 93 129 86 7 -4 9 -3 6 3 -4 6 13 26 36 45 80 67 212 173 259 208 48 36 74
68 64 78 -3 3 -6 0 -6 -6z"/>
<path d="M7191 2244 c-73 -67 -77 -84 -21 -81 22 1 34 5 27 9 -6 4 -22 4 -35
1 -22 -5 -23 -4 -12 17 6 12 25 29 41 38 16 10 29 22 29 28 0 6 12 16 27 23
35 16 42 3 32 -57 -4 -26 -7 -83 -7 -127 l1 -80 7 102 c4 55 10 113 14 128 7
29 -7 55 -30 55 -7 0 -40 -25 -73 -56z"/>
<path d="M6886 2270 c12 -22 125 -170 135 -176 13 -8 11 -22 -3 -27 -7 -2 -5
-3 4 -2 22 4 52 -30 42 -46 -4 -7 -3 -10 3 -6 11 7 70 -62 65 -76 -1 -5 2 -6
7 -3 5 4 14 -1 19 -10 13 -23 40 -11 52 21 6 15 9 68 8 118 l-1 92 -7 -107
c-8 -137 -17 -149 -71 -88 -22 25 -79 96 -127 159 -90 118 -139 177 -126 151z"/>
<path d="M6767 2218 c64 -84 237 -295 308 -378 165 -191 170 -197 156 -226
-12 -28 -1 -54 24 -54 6 0 46 34 87 77 84 84 91 109 28 98 -36 -6 -39 -4 -81
48 -24 30 -49 63 -56 73 -12 18 -12 18 -5 -2 10 -30 94 -133 109 -134 7 0 17
-8 23 -17 10 -16 11 -16 6 -1 -3 9 2 19 10 22 22 8 24 8 24 -7 0 -19 -105
-119 -115 -110 -4 5 -5 3 -1 -4 7 -13 -29 -37 -44 -28 -5 3 -5 17 2 35 8 23 7
34 -3 46 -10 13 -10 17 2 26 11 8 11 9 -3 5 -11 -4 -26 6 -45 30 -15 20 -46
56 -68 81 -84 94 -78 85 -59 99 10 7 13 13 8 13 -6 0 -15 -5 -21 -11 -7 -7
-31 16 -79 76 -38 48 -74 92 -79 98 -6 7 -37 45 -68 85 -32 39 -60 72 -64 72
-3 0 -1 -6 4 -12z"/>
<path d="M1500 2135 c-30 -24 -61 -42 -68 -40 -7 3 -11 1 -8 -4 6 -9 -184
-167 -196 -164 -5 2 -7 -1 -6 -6 2 -5 -8 -18 -21 -30 -20 -17 -27 -19 -40 -8
-14 10 -14 10 -4 -4 10 -13 10 -19 -2 -35 -20 -27 -19 -70 3 -79 14 -5 15 -4
5 6 -38 38 11 94 235 273 155 123 168 128 142 62 -12 -31 -114 -494 -131 -595
-12 -69 -11 -75 6 -87 39 -29 57 -17 197 128 75 79 135 145 133 147 -2 2 -37
-32 -77 -75 -122 -130 -200 -204 -217 -204 -38 1 -44 15 -32 76 6 33 13 75 15
94 3 20 30 146 62 280 45 196 68 314 60 310 -1 -1 -26 -21 -56 -45z"/>
<path d="M1445 2160 c-3 -5 1 -10 10 -10 9 0 13 5 10 10 -3 6 -8 10 -10 10 -2
0 -7 -4 -10 -10z"/>
<path d="M1671 2154 c0 -11 3 -14 6 -6 3 7 2 16 -1 19 -3 4 -6 -2 -5 -13z"/>
<path d="M6912 2146 c7 -8 15 -12 17 -11 5 6 -10 25 -20 25 -5 0 -4 -6 3 -14z"/>
<path d="M5238 2143 c7 -3 16 -2 19 1 4 3 -2 6 -13 5 -11 0 -14 -3 -6 -6z"/>
<path d="M6610 2127 c-71 -36 -38 -157 43 -157 43 0 67 26 74 78 5 34 1 45
-20 66 -29 28 -59 32 -97 13z m86 -11 c14 -11 19 -26 18 -60 -1 -56 -17 -76
-59 -76 -49 0 -84 52 -71 106 10 40 75 57 112 30z"/>
<path d="M1656 2115 c-3 -8 -1 -15 4 -15 6 0 10 7 10 15 0 8 -2 15 -4 15 -2 0
-6 -7 -10 -15z"/>
<path d="M5200 2110 c0 -5 5 -10 11 -10 5 0 7 5 4 10 -3 6 -8 10 -11 10 -2 0
-4 -4 -4 -10z"/>
<path d="M5282 2104 c-7 -8 -8 -14 -3 -14 10 0 25 19 20 25 -2 1 -10 -3 -17
-11z"/>
<path d="M1646 2054 c-4 -20 -5 -38 -3 -40 3 -3 8 11 11 32 4 20 5 38 3 40 -3
3 -8 -11 -11 -32z"/>
<path d="M1904 2076 c-3 -8 0 -23 6 -33 11 -17 11 -17 6 0 -8 24 1 38 19 31 8
-4 12 -10 9 -15 -3 -5 -2 -8 3 -7 15 5 83 -44 77 -54 -4 -6 -2 -8 4 -4 6 3 14
1 18 -5 7 -12 -15 -31 -28 -23 -4 3 -8 0 -8 -6 0 -17 31 -8 44 12 11 18 -4 34
-88 90 -47 32 -55 34 -62 14z"/>
<path d="M5207 2040 c3 -11 7 -20 9 -20 2 0 4 9 4 20 0 11 -4 20 -9 20 -5 0
-7 -9 -4 -20z"/>
<path d="M7240 2050 c-9 -6 -10 -10 -3 -10 6 0 15 5 18 10 8 12 4 12 -15 0z"/>
<path d="M1540 2036 c0 -2 9 -6 20 -9 11 -3 18 -1 14 4 -5 9 -34 13 -34 5z"/>
<path d="M1921 2009 c-1 -24 -334 -379 -345 -368 -4 3 14 97 55 292 10 47 9
60 -1 70 -10 9 -11 9 -6 0 4 -7 -9 -90 -29 -186 -19 -96 -35 -177 -35 -180 0
-3 -9 -4 -20 -2 -11 2 -18 0 -15 -5 3 -4 19 -6 36 -3 17 2 29 1 26 -4 -7 -12
39 -11 50 1 4 5 3 6 -4 3 -6 -4 -18 -4 -27 -1 -12 4 -3 17 37 54 42 39 55 46
67 37 13 -11 13 -10 1 6 -13 16 -8 25 55 89 38 39 77 79 86 89 9 9 19 15 22
13 3 -2 4 -1 1 3 -8 11 15 31 33 28 9 -1 11 0 4 2 -10 4 -10 10 3 29 9 14 14
31 11 37 -2 7 -5 5 -5 -4z"/>
<path d="M7325 2005 c22 -8 49 -13 60 -13 11 0 -2 6 -30 14 -63 17 -84 16 -30
-1z"/>
<path d="M7601 1994 c-24 -28 -44 -29 -161 -9 -30 5 -32 4 -12 -5 13 -5 54
-13 92 -16 65 -6 68 -6 85 20 10 14 24 26 31 26 23 0 16 -53 -11 -90 -26 -35
-28 -40 -20 -40 3 0 16 18 31 39 45 69 16 133 -35 75z"/>
<path d="M1540 1980 c-6 -11 -9 -20 -8 -20 2 0 11 9 21 20 9 11 13 20 7 20 -5
0 -14 -9 -20 -20z"/>
<path d="M7010 1991 c0 -4 11 -6 25 -3 14 2 25 6 25 8 0 2 -11 4 -25 4 -14 0
-25 -4 -25 -9z"/>
<path d="M1198 1953 c7 -3 16 -2 19 1 4 3 -2 6 -13 5 -11 0 -14 -3 -6 -6z"/>
<path d="M1975 1950 c-4 -6 -11 -8 -16 -4 -5 3 -8 1 -7 -4 2 -5 -21 -35 -50
-67 -40 -42 -57 -54 -65 -46 -6 6 -15 11 -21 11 -5 0 -2 -6 9 -13 17 -13 16
-16 -20 -55 -20 -23 -40 -40 -44 -37 -4 2 -8 -2 -8 -10 0 -17 14 -20 19 -5 2
5 54 61 117 125 63 63 109 115 103 115 -6 0 -14 -5 -17 -10z"/>
<path d="M7268 1948 c11 -14 10 -18 -5 -27 -23 -12 -20 -13 117 -40 110 -22
195 -27 204 -12 3 5 -15 6 -39 3 -51 -5 -277 37 -268 51 3 4 11 6 19 3 22 -9
16 0 -13 20 -22 14 -25 14 -15 2z"/>
<path d="M7340 1950 c13 -9 13 -11 0 -21 -13 -9 -13 -10 0 -6 22 6 25 37 3 37
-15 0 -16 -2 -3 -10z"/>
<path d="M7446 1918 c3 -5 10 -6 15 -3 13 9 11 12 -6 12 -8 0 -12 -4 -9 -9z"/>
<path d="M7232 1900 c0 -14 2 -19 5 -12 2 6 2 18 0 25 -3 6 -5 1 -5 -13z"/>
<path d="M6792 1874 c-29 -20 -75 -101 -68 -119 3 -8 14 -15 24 -15 22 0 46
-26 144 -155 115 -154 112 -148 93 -185 -13 -25 -14 -34 -4 -46 17 -20 46 -9
99 40 25 23 58 50 73 61 37 27 28 60 -14 51 -19 -3 -34 0 -44 11 -22 21 -171
222 -223 300 -23 34 -46 64 -50 67 -5 3 -18 -2 -30 -10z m59 -41 c13 -21 40
-62 61 -91 22 -29 36 -57 33 -62 -4 -6 -2 -9 3 -8 9 3 72 -68 72 -81 0 -3 16
-23 35 -45 19 -21 35 -43 35 -48 0 -6 14 -8 35 -5 50 8 51 -7 3 -45 -24 -18
-54 -45 -66 -60 -16 -19 -33 -28 -53 -28 -34 0 -33 -2 -13 38 19 38 17 42 -83
175 -40 54 -71 103 -67 108 3 5 1 8 -4 7 -5 -2 -23 12 -39 30 -17 17 -40 32
-52 32 -32 0 -25 27 24 93 28 36 49 34 76 -10z"/>
<path d="M6808 1763 c7 -3 16 -2 19 1 4 3 -2 6 -13 5 -11 0 -14 -3 -6 -6z"/>
<path d="M6870 1710 c-9 -6 -10 -10 -3 -10 6 0 15 5 18 10 8 12 4 12 -15 0z"/>
<path d="M6915 1640 c-3 -5 -1 -10 4 -10 6 0 11 5 11 10 0 6 -2 10 -4 10 -3 0
-8 -4 -11 -10z"/>
<path d="M6946 1590 c9 -8 63 -6 57 3 -2 4 -17 6 -33 5 -16 -1 -27 -5 -24 -8z"/>
<path d="M6978 1563 c7 -3 16 -2 19 1 4 3 -2 6 -13 5 -11 0 -14 -3 -6 -6z"/>
<path d="M7021 1508 c-14 -23 -14 -23 8 -4 22 20 25 26 13 26 -4 0 -13 -10
-21 -22z"/>
<path d="M7090 1450 c-9 -6 -10 -10 -3 -10 6 0 15 5 18 10 8 12 4 12 -15 0z"/>
<path d="M1505 1861 c-3 -5 0 -13 6 -17 7 -4 9 -3 5 4 -3 5 0 13 6 15 9 4 10
6 1 6 -6 1 -14 -3 -18 -8z"/>
<path d="M1511 1754 c0 -11 3 -14 6 -6 3 7 2 16 -1 19 -3 4 -6 -2 -5 -13z"/>
<path d="M7218 1763 c7 -3 16 -2 19 1 4 3 -2 6 -13 5 -11 0 -14 -3 -6 -6z"/>
<path d="M6580 1698 c-77 -51 -87 -80 -30 -88 41 -6 52 -24 79 -131 17 -68 19
-70 23 -36 2 20 2 34 -1 32 -2 -3 -13 21 -23 53 -11 31 -26 64 -34 73 -8 9
-11 18 -8 21 3 3 0 9 -7 14 -8 4 -10 3 -5 -4 5 -8 -3 -12 -23 -12 -52 0 -36
28 46 79 58 36 77 33 71 -10 -3 -16 -1 -29 4 -29 4 0 8 15 8 34 0 28 -13 46
-34 46 -1 0 -31 -19 -66 -42z"/>
<path d="M7270 1723 c8 -3 19 -11 23 -17 6 -7 7 -6 4 4 -2 8 -12 16 -23 17
-13 2 -15 1 -4 -4z"/>
<path d="M1864 1655 c0 -24 6 -46 11 -49 12 -4 11 38 0 67 -6 13 -2 17 15 17
11 0 19 -3 17 -7 -3 -5 5 -9 18 -9 13 -1 38 -12 56 -25 30 -21 31 -23 13 -36
-10 -7 -13 -13 -8 -13 12 0 34 21 34 31 0 13 -107 69 -132 69 -24 0 -25 -3
-24 -45z"/>
<path d="M1485 1650 c-4 -6 -11 -7 -17 -4 -7 4 -8 2 -4 -5 6 -9 11 -9 22 0 14
11 18 19 10 19 -3 0 -8 -5 -11 -10z"/>
<path d="M6657 1638 c-2 -7 0 -20 4 -28 10 -18 39 -183 40 -225 0 -16 3 -24 6
-16 7 19 -29 251 -39 251 -4 0 -5 7 -2 15 4 8 4 15 1 15 -3 0 -7 -6 -10 -12z"/>
<path d="M1795 1518 c-127 -172 -135 -187 -135 -237 1 -118 114 -195 215 -145
17 8 21 11 10 8 -42 -13 -118 -17 -111 -6 4 7 2 10 -7 7 -17 -7 -69 33 -61 47
4 6 3 8 -3 5 -14 -9 -33 37 -33 79 0 60 67 168 98 158 13 -5 14 -4 3 4 -11 8
-4 24 38 82 29 39 51 73 49 76 -2 2 -31 -33 -63 -78z"/>
<path d="M1911 1494 c-58 -87 -64 -93 -78 -77 -13 17 -13 16 -4 -3 8 -16 6
-26 -4 -40 -10 -14 -14 -15 -15 -5 0 8 -3 11 -7 8 -3 -4 -11 -3 -18 1 -6 4 -2
-1 8 -11 16 -14 17 -20 7 -32 -7 -8 -20 -15 -29 -16 -10 0 -11 -2 -3 -6 6 -2
12 -19 12 -37 0 -23 8 -40 27 -57 l27 -24 -22 29 c-37 49 -30 71 73 215 81
113 105 152 93 151 -2 -1 -32 -43 -67 -96z"/>
<path d="M2592 1544 c27 -14 27 -15 11 -49 -9 -19 -21 -31 -26 -28 -6 3 -7 1
-3 -6 9 -14 -31 -81 -48 -81 -7 0 -18 6 -25 13 -11 10 -12 9 -6 -2 6 -11 4
-13 -9 -8 -11 4 -15 3 -11 -4 4 -6 13 -8 21 -5 8 3 22 -4 32 -15 9 -11 38 -31
64 -45 38 -19 45 -27 41 -45 -4 -16 -12 -20 -29 -16 -13 2 -24 0 -24 -4 0 -15
47 -10 60 6 19 23 5 42 -50 70 -27 14 -50 27 -50 29 0 2 21 43 47 91 44 84 45
89 28 101 -10 8 -26 14 -34 14 -10 -1 -5 -7 11 -16z"/>
<path d="M6304 1519 c-87 -60 -110 -99 -58 -99 17 0 61 -30 142 -97 64 -54
150 -126 191 -160 77 -65 107 -75 135 -47 18 18 21 130 6 199 l-9 40 2 -42 c1
-24 -2 -45 -8 -47 -5 -2 -4 -5 3 -5 16 -1 17 -122 0 -139 -20 -20 -48 -14 -92
20 -22 18 -45 38 -51 44 -5 6 -31 28 -57 48 -26 21 -45 43 -41 49 3 5 1 7 -5
3 -6 -3 -16 -1 -24 6 -98 91 -160 138 -182 138 -14 0 -26 4 -26 8 0 11 48 54
98 87 44 29 67 26 58 -9 -6 -25 57 -93 169 -182 71 -56 127 -92 95 -62 -8 8
-62 53 -120 100 -120 98 -145 122 -135 137 9 16 -4 51 -19 51 -7 0 -39 -18
-72 -41z"/>
<path d="M1470 1546 c0 -2 7 -6 15 -10 8 -3 15 -1 15 4 0 6 -7 10 -15 10 -8 0
-15 -2 -15 -4z"/>
<path d="M2469 1480 c-45 -45 -79 -70 -93 -70 -12 0 -31 -7 -42 -15 -18 -15
-18 -16 11 -40 17 -14 29 -29 28 -34 -1 -4 5 -8 14 -8 11 0 4 11 -20 32 -39
34 -48 51 -21 41 8 -3 12 -2 9 4 -3 6 5 10 20 10 18 0 45 18 88 60 35 33 72
67 83 75 10 8 13 15 7 15 -7 0 -45 -31 -84 -70z"/>
<path d="M2121 1516 c-9 -11 -9 -16 -1 -21 19 -12 2 -53 -60 -144 -82 -119
-81 -118 -134 -141 -25 -12 -44 -25 -41 -31 4 -5 8 -9 11 -9 3 0 2 5 -1 10 -3
6 -2 10 3 10 5 0 27 8 48 17 22 9 43 16 47 15 5 -2 7 3 5 10 -7 19 13 36 37
31 16 -3 17 -2 3 4 -14 7 -8 21 43 97 59 89 68 113 48 133 -19 19 7 24 50 8
51 -18 54 -11 5 10 -45 18 -49 19 -63 1z"/>
<path d="M2870 1507 c-31 -16 -54 -61 -46 -93 4 -13 20 -31 36 -39 28 -14 34
-14 64 0 54 26 73 88 36 125 -23 23 -54 25 -90 7z m82 -14 c34 -30 18 -82 -32
-108 -33 -17 -61 -9 -78 21 -11 19 -3 66 9 58 5 -3 6 1 3 9 -5 15 28 35 60 36
11 1 28 -6 38 -16z"/>
<path d="M1449 1493 c-13 -16 -12 -17 4 -4 9 7 17 15 17 17 0 8 -8 3 -21 -13z"/>
<path d="M1875 1490 c-3 -5 -2 -10 4 -10 5 0 13 5 16 10 3 6 2 10 -4 10 -5 0
-13 -4 -16 -10z"/>
<path d="M2245 1475 c19 -15 19 -16 1 -48 -23 -40 -106 -162 -163 -242 -81
-113 -89 -148 -37 -161 13 -3 24 -10 24 -14 0 -11 -49 -22 -63 -14 -9 5 -9 3
0 -6 10 -10 20 -11 40 -4 33 11 44 44 15 44 -26 0 -44 23 -36 46 4 11 47 75
95 144 99 143 149 222 149 238 0 6 -10 16 -22 22 -22 11 -22 11 -3 -5z"/>
<path d="M3120 1483 c-49 -6 -58 -18 -33 -45 l21 -23 -29 -90 c-16 -49 -27
-94 -25 -100 3 -5 5 -4 5 3 1 7 5 11 10 8 5 -4 7 2 5 11 -2 10 7 52 20 93 24
74 24 75 5 96 -27 29 -24 34 21 34 22 0 40 5 40 10 0 6 -1 9 -2 8 -2 0 -19 -3
-38 -5z"/>
<path d="M3174 1482 c3 -5 19 -7 36 -4 29 4 30 3 25 -29 -5 -31 -5 -32 5 -10
16 36 5 51 -35 51 -20 0 -34 -4 -31 -8z"/>
<path d="M2536 1468 c3 -5 10 -6 15 -3 13 9 11 12 -6 12 -8 0 -12 -4 -9 -9z"/>
<path d="M1810 1461 c0 -6 4 -13 10 -16 6 -3 7 1 4 9 -7 18 -14 21 -14 7z"/>
<path d="M2200 1440 c-9 -6 -10 -10 -3 -10 6 0 15 5 18 10 8 12 4 12 -15 0z"/>
<path d="M2463 1435 c0 -8 4 -12 9 -9 4 3 8 9 8 15 0 5 -4 9 -8 9 -5 0 -9 -7
-9 -15z"/>
<path d="M5546 1415 c-38 -38 -22 -98 29 -111 56 -14 107 65 69 107 -21 23
-76 25 -98 4z m94 -10 c16 -20 3 -73 -22 -86 -52 -28 -106 27 -74 76 19 29 75
35 96 10z"/>
<path d="M3135 1410 c3 -5 8 -10 11 -10 2 0 4 5 4 10 0 6 -5 10 -11 10 -5 0
-7 -4 -4 -10z"/>
<path d="M3206 1355 c-40 -142 -90 -294 -96 -290 -3 2 -12 -1 -20 -7 -12 -8
-11 -9 3 -4 16 5 18 2 12 -27 -4 -17 -14 -47 -21 -66 -8 -18 -14 -41 -13 -50
1 -25 14 13 90 259 38 123 68 229 66 235 -2 5 -12 -17 -21 -50z"/>
<path d="M6055 1391 c-72 -23 -132 -82 -160 -155 -23 -60 -16 -181 13 -248 36
-82 132 -168 188 -168 22 0 13 9 -14 15 -60 11 -117 63 -155 140 -34 68 -43
115 -26 126 10 6 11 9 2 9 -8 0 -13 14 -13 36 0 45 20 115 31 109 4 -3 11 0
15 6 4 8 3 9 -4 5 -18 -11 -14 3 9 36 69 96 199 110 280 29 33 -33 65 -104 54
-121 -5 -8 -129 -70 -139 -70 -4 0 -4 5 0 12 4 7 3 8 -5 4 -6 -4 -9 -11 -7
-15 3 -4 -17 -18 -45 -30 -69 -32 -75 -48 -38 -105 35 -52 74 -86 98 -86 9 0
1 8 -17 17 -36 18 -92 91 -92 120 0 15 30 33 125 77 69 33 127 66 130 75 7 23
-9 75 -36 112 -38 54 -136 89 -194 70z"/>
<path d="M6650 1372 c0 -18 4 -32 9 -32 5 0 8 11 7 25 -4 38 -16 43 -16 7z"/>
<path d="M2158 1383 c7 -3 16 -2 19 1 4 3 -2 6 -13 5 -11 0 -14 -3 -6 -6z"/>
<path d="M5360 1360 c-27 -27 -27 -90 0 -115 27 -24 70 -22 92 5 10 12 18 27
18 32 0 6 -9 -1 -21 -16 -25 -32 -73 -36 -89 -7 -27 52 0 111 53 111 25 0 61
-35 51 -51 -2 -4 0 -10 6 -14 18 -11 11 21 -11 49 -25 32 -70 35 -99 6z"/>
<path d="M2452 1361 c-11 -7 -11 -9 0 -14 9 -3 15 1 15 9 0 8 -1 14 -1 14 -1
0 -7 -4 -14 -9z"/>
<path d="M4942 1358 c-35 -6 -61 -12 -58 -15 2 -3 36 0 75 6 38 6 87 11 109
11 51 0 104 -19 95 -33 -3 -7 -3 -9 2 -5 4 4 17 2 28 -3 16 -9 17 -13 6 -21
-11 -8 -10 -9 3 -5 20 7 43 -17 32 -34 -4 -8 -3 -9 4 -5 7 4 12 3 12 -3 0 -5
-3 -11 -7 -14 -5 -2 -2 -2 4 -1 18 4 35 -70 31 -133 -2 -29 0 -53 5 -53 13 0
8 115 -8 167 -17 56 -72 114 -131 139 -37 16 -108 16 -202 2z"/>
<path d="M6483 1345 c0 -8 4 -15 9 -15 4 0 8 4 8 9 0 6 -4 12 -8 15 -5 3 -9
-1 -9 -9z"/>
<path d="M4801 1324 c-78 -21 -106 -36 -109 -62 -3 -18 1 -22 22 -22 35 0 53
-31 67 -120 7 -41 16 -79 19 -83 4 -4 17 -3 31 3 l24 10 -25 -3 c-21 -2 -25 3
-28 28 -5 47 -33 149 -44 163 -6 6 -21 12 -34 12 -40 0 -27 27 20 45 81 31
109 33 128 10 10 -11 17 -15 18 -7 0 6 -4 12 -10 12 -5 0 -10 7 -10 15 0 18 0
18 -69 -1z"/>
<path d="M6035 1330 c7 -11 -26 -26 -65 -29 -11 -1 -12 -3 -3 -9 10 -6 10 -15
0 -43 -6 -18 -16 -37 -22 -41 -6 -5 -6 -8 1 -8 6 0 15 -15 20 -32 13 -45 38
-46 120 -8 54 26 69 29 76 18 8 -10 9 -9 5 4 -8 23 2 29 27 17 18 -9 19 -8 5
3 -9 7 -19 24 -22 38 -10 39 -60 81 -106 90 -22 4 -38 4 -36 0z m108 -50 c16
-18 27 -39 25 -48 -3 -18 -139 -92 -168 -92 -19 0 -30 27 -30 79 0 25 9 42 35
68 32 32 40 35 73 30 24 -4 47 -17 65 -37z"/>
<path d="M2413 1315 c0 -8 4 -12 9 -9 5 3 6 10 3 15 -9 13 -12 11 -12 -6z"/>
<path d="M6662 1305 c0 -16 2 -22 5 -12 2 9 2 23 0 30 -3 6 -5 -1 -5 -18z"/>
<path d="M6496 1312 c-3 -5 1 -9 9 -9 8 0 12 4 9 9 -3 4 -7 8 -9 8 -2 0 -6 -4
-9 -8z"/>
<path d="M2556 1298 c3 -4 9 -8 15 -8 5 0 9 4 9 8 0 5 -7 9 -15 9 -8 0 -12 -4
-9 -9z"/>
<path d="M5007 1301 c80 -10 120 -57 149 -176 4 -18 9 -24 11 -14 7 30 -37
127 -75 163 -33 32 -42 36 -87 35 l-50 -2 52 -6z"/>
<path d="M2295 1169 c-37 -72 -64 -133 -61 -136 3 -4 6 -1 6 6 0 7 5 9 12 5 6
-4 8 -3 4 4 -8 13 97 222 121 240 15 10 15 12 1 12 -10 0 -40 -48 -83 -131z"/>
<path d="M4896 1284 c-3 -9 -5 -25 -5 -37 1 -16 3 -14 8 8 4 20 14 31 31 36
l25 7 -26 1 c-16 1 -29 -5 -33 -15z"/>
<path d="M6551 1284 c0 -11 3 -14 6 -6 3 7 2 16 -1 19 -3 4 -6 -2 -5 -13z"/>
<path d="M2115 1280 c-4 -6 -16 -8 -28 -5 -20 5 -20 5 -3 -6 14 -9 21 -8 34 5
9 9 13 16 10 16 -4 0 -10 -5 -13 -10z"/>
<path d="M2400 1270 c-12 -7 -10 -9 7 -7 12 0 19 5 17 9 -6 10 -6 10 -24 -2z"/>
<path d="M2477 1259 c-10 -14 -20 -18 -29 -13 -10 6 -11 5 -2 -7 9 -11 -1 -36
-43 -114 -60 -112 -86 -185 -72 -206 12 -20 11 -31 -3 -23 -7 4 -8 3 -4 -5 4
-6 11 -9 16 -6 17 10 20 -14 4 -29 -8 -9 -10 -16 -4 -16 6 0 13 7 16 15 4 9
18 14 38 14 17 -1 41 2 54 6 16 6 22 3 22 -9 0 -16 -37 -39 -83 -50 -65 -16
-166 49 -151 96 4 14 2 18 -5 14 -6 -4 -11 -1 -11 8 0 8 6 17 13 19 9 4 9 6 0
6 -8 1 -11 12 -8 34 4 25 3 28 -4 12 -15 -30 -13 -70 5 -115 36 -90 177 -117
243 -46 34 36 20 47 -49 39 -56 -5 -60 -5 -71 20 -7 15 -9 40 -5 63 7 33 125
276 146 297 4 5 25 4 45 -2 26 -7 35 -7 28 0 -6 6 -24 12 -41 15 -23 4 -34 0
-45 -17z"/>
<path d="M6188 1263 c7 -3 16 -2 19 1 4 3 -2 6 -13 5 -11 0 -14 -3 -6 -6z"/>
<path d="M6190 1246 c0 -3 9 -10 20 -16 11 -6 20 -8 20 -6 0 3 -9 10 -20 16
-11 6 -20 8 -20 6z"/>
<path d="M2775 1233 c89 -6 95 -9 82 -42 -6 -17 -14 -28 -18 -25 -4 2 -12 -2
-18 -10 -9 -11 -9 -15 1 -18 9 -3 8 -16 -6 -51 -10 -26 -21 -45 -25 -43 -4 3
-7 -3 -7 -12 0 -9 -4 -28 -8 -42 -20 -60 10 -2 54 107 35 85 46 121 38 130 -7
9 -34 12 -77 11 -58 -1 -60 -2 -16 -5z"/>
<path d="M2025 1220 c3 -5 8 -10 11 -10 2 0 4 5 4 10 0 6 -5 10 -11 10 -5 0
-7 -4 -4 -10z"/>
<path d="M2710 1215 c0 -8 5 -15 10 -15 18 0 10 -29 -45 -167 -30 -75 -53
-138 -51 -141 2 -2 7 6 11 17 3 12 10 19 15 16 5 -3 12 0 16 6 4 8 3 9 -4 5
-17 -10 -16 -6 19 81 17 43 39 101 48 128 17 48 17 51 -1 68 -15 14 -18 14
-18 2z"/>
<path d="M1725 1210 c-3 -5 -1 -10 4 -10 6 0 11 5 11 10 0 6 -2 10 -4 10 -3 0
-8 -4 -11 -10z"/>
<path d="M1757 1203 c-9 -15 17 -23 34 -11 11 8 11 9 -3 5 -9 -3 -18 -1 -21 6
-2 8 -5 8 -10 0z"/>
<path d="M3021 1139 c-12 -39 -20 -73 -17 -76 2 -3 15 27 27 66 11 40 19 74
17 76 -2 3 -14 -27 -27 -66z"/>
<path d="M1848 1193 c7 -3 16 -2 19 1 4 3 -2 6 -13 5 -11 0 -14 -3 -6 -6z"/>
<path d="M4902 1170 c0 -19 2 -27 5 -17 2 9 2 25 0 35 -3 9 -5 1 -5 -18z"/>
<path d="M5511 1169 c-69 -35 -114 -86 -132 -152 -13 -49 -6 -67 24 -67 31 0
57 29 57 64 0 55 90 103 146 77 14 -6 34 -30 44 -54 22 -46 23 -43 -41 -90
-23 -17 -23 -17 9 0 55 29 65 46 50 79 -20 48 -59 84 -90 84 -68 0 -128 -48
-128 -102 0 -28 -23 -48 -55 -48 -13 0 -15 7 -9 37 9 47 43 105 57 96 5 -3 7
-2 4 4 -13 21 91 90 119 79 8 -3 14 -1 14 4 0 18 72 10 106 -11 41 -25 70 -86
114 -239 38 -135 47 -157 68 -165 13 -5 13 -3 -1 13 -9 10 -35 81 -58 158 -46
160 -70 209 -118 241 -48 33 -103 30 -180 -8z"/>
<path d="M2018 1183 c7 -3 16 -2 19 1 4 3 -2 6 -13 5 -11 0 -14 -3 -6 -6z"/>
<path d="M3095 1180 c-3 -6 -2 -17 3 -26 6 -11 11 -13 16 -5 4 6 2 11 -3 11
-6 0 -11 4 -11 10 0 5 7 7 15 4 8 -4 15 -4 15 -1 0 10 -30 16 -35 7z"/>
<path d="M2323 1165 c0 -8 4 -12 9 -9 5 3 6 10 3 15 -9 13 -12 11 -12 -6z"/>
<path d="M5246 1158 c3 -5 10 -6 15 -3 13 9 11 12 -6 12 -8 0 -12 -4 -9 -9z"/>
<path d="M1912 1108 c-5 -18 -7 -41 -4 -51 5 -19 58 -67 74 -67 6 0 -4 10 -23
23 -27 18 -35 30 -37 61 -2 20 2 44 9 52 8 9 8 14 1 14 -7 0 -15 -15 -20 -32z"/>
<path d="M4911 1110 c0 -14 3 -52 9 -84 7 -44 6 -63 -3 -75 -9 -11 -9 -13 0
-8 7 4 16 0 22 -10 9 -15 10 -12 5 12 -3 17 -11 66 -18 110 -8 44 -14 69 -15
55z"/>
<path d="M2773 1095 c0 -8 4 -12 9 -9 5 3 6 10 3 15 -9 13 -12 11 -12 -6z"/>
<path d="M3100 1101 c0 -9 -9 -12 -25 -9 -13 3 -22 1 -19 -3 7 -13 42 -11 49
2 4 6 4 13 1 16 -3 4 -6 1 -6 -6z"/>
<path d="M3273 1085 c-17 -13 -17 -14 0 -33 10 -10 15 -25 12 -33 -3 -8 -41
-36 -85 -63 -44 -26 -77 -52 -74 -57 3 -5 7 -9 10 -9 3 0 2 5 -1 10 -3 6 -2
10 3 10 19 0 162 100 162 114 0 7 -7 19 -15 26 -22 18 -18 30 8 30 33 0 67
-11 62 -20 -3 -5 5 -6 17 -2 13 3 19 1 15 -5 -4 -6 3 -8 17 -6 31 6 72 -15 57
-30 -5 -5 -24 -12 -41 -14 -50 -5 -230 -104 -230 -126 0 -18 76 -220 100 -266
l20 -40 -22 -15 c-12 -9 -18 -16 -12 -16 5 0 15 5 22 12 9 9 18 9 39 -1 l28
-12 -28 23 c-15 13 -41 57 -61 103 -37 90 -80 215 -75 219 14 11 153 88 176
97 15 6 40 11 56 11 33 -1 54 30 33 47 -7 6 -50 22 -95 35 -67 20 -83 21 -98
11z"/>
<path d="M5246 1088 c3 -5 10 -6 15 -3 13 9 11 12 -6 12 -8 0 -12 -4 -9 -9z"/>
<path d="M5156 1056 c-15 -82 -53 -118 -146 -142 l-45 -11 37 -5 c20 -2 35 -1
32 3 -2 4 8 11 24 17 39 13 90 64 98 98 4 16 10 31 14 34 4 3 4 14 0 25 -6 16
-8 12 -14 -19z"/>
<path d="M2292 1071 c-11 -7 -11 -9 2 -14 10 -4 16 -1 16 8 0 17 -1 17 -18 6z"/>
<path d="M2753 1063 c4 -3 1 -13 -6 -22 -11 -14 -10 -14 5 -2 16 12 16 31 1
31 -4 0 -3 -3 0 -7z"/>
<path d="M6325 1031 c-24 -54 -54 -80 -117 -102 -29 -10 -44 -18 -32 -19 11 0
43 11 71 25 39 20 56 36 77 75 15 28 32 50 37 50 37 0 6 -99 -49 -155 -35 -36
-107 -75 -137 -75 -8 0 -16 -4 -19 -9 -10 -16 62 6 109 34 95 55 166 215 97
215 -12 0 -25 -14 -37 -39z"/>
<path d="M2981 1013 c-6 -21 -30 -100 -55 -175 -24 -76 -39 -135 -35 -132 5 3
9 12 9 20 0 9 5 12 12 8 7 -4 8 -3 4 4 -10 16 24 121 38 118 6 -2 8 -1 4 1 -5
3 -8 11 -8 19 0 9 4 13 9 10 5 -4 7 2 4 13 -3 10 3 33 11 50 9 17 14 31 12 31
-3 0 0 13 5 30 6 17 16 27 22 23 6 -3 7 -1 3 5 -13 21 -25 13 -35 -25z"/>
<path d="M3315 1020 c-3 -6 1 -7 9 -4 18 7 21 14 7 14 -6 0 -13 -4 -16 -10z"/>
<path d="M3647 1016 c-53 -19 -100 -53 -127 -93 -19 -27 -20 -35 -10 -48 19
-23 72 -15 86 12 23 48 45 63 91 63 36 0 50 -6 75 -30 27 -28 30 -35 24 -73
-9 -57 -21 -66 -94 -73 -34 -4 -64 -10 -67 -14 -7 -12 127 9 149 23 24 16 33
77 16 118 -14 33 -59 59 -105 59 -49 0 -74 -15 -91 -56 -12 -29 -19 -33 -43
-31 -16 1 -30 5 -30 10 -2 21 1 28 25 57 34 40 94 70 139 70 19 0 35 5 35 10
0 14 -27 12 -73 -4z"/>
<path d="M3730 1023 c0 -4 14 -9 30 -10 49 -4 96 -32 116 -69 19 -35 19 -36 0
-49 -10 -8 -24 -11 -30 -8 -6 4 -5 -1 3 -10 7 -9 19 -17 25 -17 7 0 7 3 -1 8
-9 6 -7 11 8 20 19 12 19 10 14 -45 -2 -32 -9 -73 -14 -90 -5 -18 -6 -33 -1
-33 13 0 33 137 25 178 -8 45 -38 88 -73 106 -34 17 -102 30 -102 19z"/>
<path d="M5733 1015 c0 -8 4 -15 9 -15 4 0 8 4 8 9 0 6 -4 12 -8 15 -5 3 -9
-1 -9 -9z"/>
<path d="M2298 1013 c7 -3 16 -2 19 1 4 3 -2 6 -13 5 -11 0 -14 -3 -6 -6z"/>
<path d="M4805 970 c5 -30 9 -62 10 -70 12 -98 18 -130 25 -130 4 0 3 23 -2
52 -5 28 -8 62 -5 75 2 12 1 24 -3 25 -4 2 -10 22 -13 46 -2 23 -8 46 -12 50
-4 4 -4 -18 0 -48z"/>
<path d="M5233 973 c-44 -53 -168 -113 -233 -113 -15 0 -32 -6 -38 -13 -12
-14 -12 -137 -1 -137 4 0 10 -21 14 -46 3 -25 9 -44 12 -41 2 3 -3 51 -11 107
-9 55 -14 105 -11 109 2 5 26 10 53 13 87 8 210 79 243 141 15 27 6 20 -28
-20z"/>
<path d="M4130 968 c-113 -58 -122 -194 -19 -281 37 -31 119 -82 119 -73 0 2
-29 23 -64 47 -100 67 -146 156 -93 180 l22 10 -23 -5 c-21 -4 -23 -2 -17 22
17 69 84 112 176 112 61 -1 96 -16 115 -51 7 -13 13 -19 14 -12 0 7 -11 24
-24 40 -21 24 -32 28 -92 31 -57 3 -77 -1 -114 -20z"/>
<path d="M2750 930 c-7 -16 -16 -27 -21 -24 -5 3 -6 -2 -3 -11 8 -20 -15 -47
-35 -40 -14 4 -14 4 -1 -7 9 -7 14 -22 12 -33 -2 -11 -2 -18 1 -15 8 9 67 154
63 157 -2 2 -9 -10 -16 -27z"/>
<path d="M4265 950 c3 -5 8 -10 11 -10 2 0 4 5 4 10 0 6 -5 10 -11 10 -5 0 -7
-4 -4 -10z"/>
<path d="M3787 939 c7 -7 15 -10 18 -7 3 3 -2 9 -12 12 -14 6 -15 5 -6 -5z"/>
<path d="M4157 923 c-26 -30 -22 -85 9 -114 23 -22 24 -24 8 -36 -10 -7 -13
-13 -8 -13 6 0 15 5 21 11 12 12 75 -24 131 -75 34 -31 61 -104 44 -115 -6 -3
-3 -12 6 -20 14 -13 15 -10 9 34 -10 68 -37 103 -131 166 -85 57 -104 85 -92
132 7 30 41 43 82 33 25 -7 34 -15 84 -76 l20 -25 -20 36 c-30 53 -54 71 -102
76 -34 4 -47 1 -61 -14z"/>
<path d="M5661 925 c-18 -8 -38 -12 -44 -8 -5 3 -7 1 -3 -5 6 -10 -62 -59 -77
-54 -5 1 -6 -2 -3 -7 4 -5 1 -20 -5 -34 -15 -34 11 -93 48 -108 15 -6 36 -15
45 -20 14 -7 16 -5 11 8 -5 12 -2 15 10 10 9 -3 16 -3 14 1 -4 13 50 71 58 64
5 -4 5 -2 2 4 -12 20 4 76 19 70 8 -3 14 -1 14 5 0 25 -35 1 -42 -30 -13 -47
-36 -79 -71 -97 -40 -21 -71 -11 -91 30 -21 45 -9 76 46 117 64 47 88 56 98
39 7 -11 9 -9 7 8 0 12 -1 22 -2 22 0 -1 -15 -7 -34 -15z"/>
<path d="M5524 896 c-51 -34 -76 -65 -94 -111 -6 -17 -6 -26 3 -31 7 -4 9 -4
5 1 -4 4 2 25 13 47 16 32 23 37 34 28 12 -10 13 -8 10 9 -3 16 7 29 41 51 38
27 52 40 41 40 -1 0 -25 -15 -53 -34z"/>
<path d="M5758 923 c7 -3 16 -2 19 1 4 3 -2 6 -13 5 -11 0 -14 -3 -6 -6z"/>
<path d="M3000 906 c0 -2 8 -10 18 -17 15 -13 16 -12 3 4 -13 16 -21 21 -21
13z"/>
<path d="M5710 895 c-6 -8 -10 -20 -7 -27 3 -8 6 -6 6 5 1 10 11 22 24 27 15
6 17 9 6 9 -9 1 -22 -6 -29 -14z"/>
<path d="M3090 890 c-12 -7 -12 -11 -2 -20 6 -5 10 -7 7 -4 -3 4 0 13 6 21 13
15 10 16 -11 3z"/>
<path d="M4347 888 c6 -7 9 -21 8 -31 -2 -9 1 -15 6 -11 15 9 10 41 -7 48 -13
5 -14 3 -7 -6z"/>
<path d="M6130 889 c0 -5 5 -7 10 -4 6 3 10 8 10 11 0 2 -4 4 -10 4 -5 0 -10
-5 -10 -11z"/>
<path d="M4896 877 c3 -10 9 -15 12 -12 3 3 0 11 -7 18 -10 9 -11 8 -5 -6z"/>
<path d="M6030 880 c-9 -6 -10 -10 -3 -10 6 0 15 5 18 10 8 12 4 12 -15 0z"/>
<path d="M2594 848 c-21 -41 -31 -48 -71 -48 -26 0 -33 -4 -33 -20 0 -18 56
-58 66 -47 3 2 -9 10 -26 17 -41 17 -39 40 4 40 18 0 39 6 46 14 6 8 19 12 28
9 15 -4 15 -3 2 6 -13 9 -13 14 -2 32 7 11 11 23 8 26 -2 3 -12 -10 -22 -29z"/>
<path d="M4855 860 c-3 -6 1 -7 9 -4 18 7 21 14 7 14 -6 0 -13 -4 -16 -10z"/>
<path d="M2636 843 c-6 -14 -5 -15 5 -6 7 7 10 15 7 18 -3 3 -9 -2 -12 -12z"/>
<path d="M6188 853 c7 -3 16 -2 19 1 4 3 -2 6 -13 5 -11 0 -14 -3 -6 -6z"/>
<path d="M3070 831 c-8 -6 -17 -8 -20 -6 -3 1 -17 -35 -31 -81 -23 -74 -25
-86 -12 -101 13 -17 14 -17 5 1 -13 26 31 155 61 178 23 19 22 24 -3 9z"/>
<path d="M3100 811 c0 -5 13 -46 30 -90 53 -144 101 -221 138 -221 11 0 5 7
-16 20 -25 15 -43 41 -68 97 -19 42 -33 81 -31 87 2 6 -2 17 -9 24 -8 7 -18
31 -24 52 -10 37 -20 52 -20 31z"/>
<path d="M5912 795 c-12 -14 -18 -25 -13 -25 5 0 14 7 21 15 27 33 35 10 12
-33 -18 -32 -57 -54 -102 -58 -32 -3 -43 1 -59 22 -12 15 -18 31 -14 37 3 6 1
7 -5 3 -9 -5 -9 -13 -2 -26 27 -51 74 -64 129 -35 40 20 83 74 79 98 -4 30
-21 31 -46 2z"/>
<path d="M4110 800 c-9 -6 -10 -10 -3 -10 6 0 15 5 18 10 8 12 4 12 -15 0z"/>
<path d="M4890 789 c0 -5 5 -7 10 -4 6 3 10 8 10 11 0 2 -4 4 -10 4 -5 0 -10
-5 -10 -11z"/>
<path d="M5790 796 c0 -2 7 -7 16 -10 8 -3 12 -2 9 4 -6 10 -25 14 -25 6z"/>
<path d="M2684 768 c-4 -13 -12 -27 -18 -31 -7 -6 -5 -7 6 -4 21 7 56 -29 41
-44 -7 -7 -29 -2 -73 16 -34 14 -64 24 -67 22 -7 -8 129 -58 143 -53 21 8 17
44 -7 56 -16 9 -19 18 -15 36 8 30 0 32 -10 2z"/>
<path d="M2577 749 c7 -7 15 -10 18 -7 3 3 -2 9 -12 12 -14 6 -15 5 -6 -5z"/>
<path d="M2936 751 c-3 -5 4 -11 16 -14 29 -8 32 -4 8 11 -10 6 -21 8 -24 3z"/>
<path d="M3526 740 c-55 -28 -71 -45 -84 -89 -22 -73 -6 -145 40 -174 33 -22
98 -33 98 -17 0 7 -7 10 -16 6 -20 -8 -74 15 -97 41 -29 33 -33 105 -8 156 17
34 31 48 69 65 26 12 56 23 67 25 16 4 15 5 -5 5 -14 1 -43 -8 -64 -18z"/>
<path d="M3738 753 c7 -3 16 -2 19 1 4 3 -2 6 -13 5 -11 0 -14 -3 -6 -6z"/>
<path d="M4845 725 c17 -161 17 -175 5 -190 -7 -8 -21 -15 -32 -15 -10 0 -21
-7 -24 -15 -7 -17 12 -45 29 -45 6 0 2 7 -9 15 -16 13 -17 16 -4 25 8 6 25 8
37 5 12 -3 25 -1 28 5 3 6 -1 7 -9 4 -14 -5 -14 -3 -3 20 14 26 9 95 -13 191
l-9 40 4 -40z"/>
<path d="M3187 743 c-2 -4 5 -17 16 -28 l20 -20 -13 25 c-16 32 -17 33 -23 23z"/>
<path d="M3683 733 c-63 -6 -52 -18 14 -18 56 0 58 -1 54 -25 -8 -57 -27 -95
-60 -117 -40 -27 -77 -29 -111 -6 l-25 17 20 -23 c16 -19 26 -22 60 -17 22 4
48 7 57 8 9 1 16 7 15 13 -1 5 4 9 11 7 6 -1 11 1 10 5 -1 5 3 18 10 29 31 57
31 137 -1 132 -7 -1 -31 -3 -54 -5z"/>
<path d="M3830 726 c0 -2 7 -6 15 -10 8 -3 15 -1 15 4 0 6 -7 10 -15 10 -8 0
-15 -2 -15 -4z"/>
<path d="M5431 710 c-1 -29 26 -74 58 -97 28 -19 90 -19 129 1 37 19 95 76 86
85 -4 3 -9 0 -11 -7 -3 -6 -10 -9 -16 -5 -7 3 -9 3 -5 -1 9 -10 -21 -44 -55
-62 -75 -40 -158 -3 -177 78 -7 28 -8 29 -9 8z"/>
<path d="M3600 711 c-8 -6 -19 -7 -25 -4 -5 4 -7 3 -3 -2 4 -4 3 -14 -4 -22
-6 -7 -8 -16 -4 -20 3 -3 6 -1 6 5 0 7 15 21 33 32 17 11 28 20 22 20 -5 0
-17 -4 -25 -9z"/>
<path d="M3859 651 c-11 -56 -13 -61 -35 -57 -14 3 -22 1 -19 -5 4 -5 10 -7
15 -4 5 3 11 1 15 -5 3 -5 9 -10 13 -10 9 0 35 130 28 137 -3 3 -10 -22 -17
-56z"/>
<path d="M4262 694 c10 -10 20 -16 22 -13 3 3 -5 11 -17 18 -21 13 -21 12 -5
-5z"/>
<path d="M5500 696 c0 -2 7 -6 15 -10 8 -3 15 -1 15 4 0 6 -7 10 -15 10 -8 0
-15 -2 -15 -4z"/>
<path d="M2813 674 c-3 -8 0 -21 6 -27 15 -15 212 -77 223 -71 11 7 10 42 -2
49 -5 3 -7 0 -4 -9 12 -32 -7 -34 -84 -9 -117 37 -133 45 -129 57 2 6 11 11
20 11 8 0 19 4 23 8 4 4 -5 7 -20 7 -15 0 -29 -7 -33 -16z"/>
<path d="M4178 673 c6 -2 18 -2 25 0 6 3 1 5 -13 5 -14 0 -19 -2 -12 -5z"/>
<path d="M3188 663 c7 -3 16 -2 19 1 4 3 -2 6 -13 5 -11 0 -14 -3 -6 -6z"/>
<path d="M3552 620 c0 -19 2 -27 5 -17 2 9 2 25 0 35 -3 9 -5 1 -5 -18z"/>
<path d="M3810 645 c0 -7 30 -13 34 -7 3 4 -4 9 -15 9 -10 1 -19 0 -19 -2z"/>
<path d="M3236 627 c3 -10 9 -15 12 -12 3 3 0 11 -7 18 -10 9 -11 8 -5 -6z"/>
<path d="M4275 619 c-4 -6 -5 -12 -2 -15 2 -3 7 2 10 11 7 17 1 20 -8 4z"/>
<path d="M3770 599 c0 -5 5 -7 10 -4 6 3 10 8 10 11 0 2 -4 4 -10 4 -5 0 -10
-5 -10 -11z"/>
<path d="M4240 601 c0 -5 7 -14 15 -21 37 -31 -6 -110 -61 -110 -39 0 -90 36
-116 81 -16 29 -28 39 -43 37 -17 -3 -20 -10 -20 -55 1 -44 6 -58 30 -83 37
-39 85 -54 155 -47 67 6 132 42 155 86 26 51 16 59 -11 10 -19 -34 -38 -52
-67 -65 -30 -14 -42 -15 -45 -6 -2 6 -8 12 -13 12 -4 0 -6 -7 -3 -15 5 -12 -3
-15 -42 -15 -91 0 -154 56 -154 138 0 45 24 42 55 -7 13 -22 38 -47 54 -57 16
-10 28 -21 26 -24 -3 -4 14 -4 37 0 54 10 89 49 86 95 -1 19 -10 37 -20 44
-10 6 -18 7 -18 2z"/>
<path d="M4989 592 c16 -31 38 -44 68 -40 21 2 29 -2 31 -16 3 -14 0 -17 -13
-13 -9 4 -14 3 -11 -1 5 -9 -152 -42 -197 -42 -15 0 -27 -4 -27 -8 0 -14 218
23 249 43 30 18 0 62 -33 49 -19 -7 -56 13 -56 31 0 8 -5 15 -10 15 -7 0 -7
-6 -1 -18z"/>
<path d="M3374 559 c-4 -8 -3 -9 4 -5 14 8 16 -13 4 -32 -5 -7 -28 -16 -53
-21 -43 -9 -43 -9 -9 -10 42 -1 80 22 80 49 0 23 -16 35 -26 19z"/>
<path d="M3516 559 c3 -5 9 -7 14 -4 5 3 11 1 14 -4 4 -5 -6 -14 -21 -19 -16
-6 -21 -11 -12 -11 8 -1 23 5 34 12 15 12 16 15 4 23 -20 12 -40 14 -33 3z"/>
<path d="M4918 543 c7 -3 16 -2 19 1 4 3 -2 6 -13 5 -11 0 -14 -3 -6 -6z"/>
<path d="M3700 526 c-6 -8 -17 -14 -23 -12 -7 1 -8 1 -4 -2 17 -9 -34 -33 -56
-27 -16 5 -18 4 -8 -3 11 -8 10 -11 -5 -15 -17 -4 -17 -5 2 -6 12 0 41 13 65
30 57 41 66 49 52 49 -6 0 -16 -6 -23 -14z"/>
<path d="M3556 513 c-6 -14 -5 -15 5 -6 7 7 10 15 7 18 -3 3 -9 -2 -12 -12z"/>
<path d="M3841 524 c-1 -6 8 -19 19 -29 17 -15 24 -16 46 -7 30 14 34 15 34 3
0 -20 -68 -51 -112 -51 -49 0 -73 18 -81 60 -4 25 -4 24 -6 -2 -2 -42 30 -68
84 -68 75 0 142 45 120 80 -5 8 -15 6 -31 -5 -26 -16 -57 -8 -67 17 -3 8 -6 8
-6 2z"/>
<path d="M3788 503 c7 -3 16 -2 19 1 4 3 -2 6 -13 5 -11 0 -14 -3 -6 -6z"/>
<path d="M4060 489 c0 -5 5 -7 10 -4 6 3 10 8 10 11 0 2 -4 4 -10 4 -5 0 -10
-5 -10 -11z"/>
<path d="M4180 439 c0 -5 5 -7 10 -4 6 3 10 8 10 11 0 2 -4 4 -10 4 -5 0 -10
-5 -10 -11z"/>
</g>
</svg>
